<svg fill="none" role="presentation" viewBox="0 0 56 56" xmlns="http://www.w3.org/2000/svg"><title>Flag of Argentina</title><g clip-path="url(#clip0_936_10534:S3:)"><path d="M27.7016 55.8065C43.0008 55.8065 55.4032 43.4041 55.4032 28.1049C55.4032 12.8058 43.0008 0.40332 27.7016 0.40332C12.4024 0.40332 0 12.8058 0 28.1049C0 43.4041 12.4024 55.8065 27.7016 55.8065Z" fill="#F0F0F0"></path><path d="M27.7017 0.40332C16.719 0.40332 7.22952 6.79471 2.74878 16.0608H52.6544C48.1738 6.79471 38.6842 0.40332 27.7017 0.40332Z" fill="#338AF3"></path><path d="M27.7017 55.8066C38.6842 55.8066 48.1738 49.4153 52.6545 40.1492H2.74878C7.22952 49.4153 16.719 55.8066 27.7017 55.8066Z" fill="#338AF3"></path><path d="M35.9813 28.105L32.5981 29.6964L34.3997 32.9729L30.726 32.2701L30.2604 35.9812L27.7016 33.2518L25.1427 35.9812L24.6773 32.2701L21.0036 32.9728L22.805 29.6963L19.422 28.105L22.8051 26.5136L21.0036 23.2372L24.6772 23.9399L25.1428 20.2288L27.7016 22.9582L30.2605 20.2288L30.726 23.9399L34.3998 23.2372L32.5982 26.5137L35.9813 28.105Z" fill="#FFDA44"></path></g><defs><clippath id="clip0_936_10534:S3:"><rect fill="white" height="55.4032" transform="translate(0 0.40332)" width="55.4032"></rect></clippath></defs></svg>