<svg fill="none" role="img" viewBox="0 0 57 56" xmlns="http://www.w3.org/2000/svg"><title>Flag of Austria</title><g clip-path="url(#clip0_936_10568:Se:)"><path d="M54.293 37.7402C55.4066 34.7394 56.0161 31.4934 56.0161 28.1049C56.0161 24.7165 55.4066 21.4707 54.293 18.4696L28.3144 16.0608L2.33585 18.4696C1.22238 21.4707 0.612834 24.7165 0.612834 28.1049C0.612834 31.4934 1.22238 34.7394 2.33585 37.7402L28.3144 40.1491L54.293 37.7402Z" fill="#F0F0F0"></path><path d="M28.3144 55.8066C40.225 55.8066 50.379 48.289 54.2929 37.7402H2.33571C6.24986 48.289 16.4036 55.8066 28.3144 55.8066Z" fill="#D80027"></path><path d="M28.3145 0.40332C16.4036 0.40332 6.24991 7.92085 2.33576 18.4696H54.2931C50.379 7.92085 40.2251 0.40332 28.3145 0.40332Z" fill="#D80027"></path></g><defs><clippath id="clip0_936_10568:Se:"><rect fill="white" height="55.4032" transform="translate(0.612915 0.40332)" width="55.4032"></rect></clippath></defs></svg>