<svg fill="none" role="img" viewBox="0 0 56 56" xmlns="http://www.w3.org/2000/svg"><title>Flag of Australia</title><g clip-path="url(#clip0_936_10552:S5:)"><path d="M55.6129 28.1049C55.6129 43.404 43.2104 55.8065 27.9113 55.8065C12.6122 55.8065 0.209686 43.404 0.209686 28.1049C0.209686 28.1114 27.9113 0.406458 27.9113 0.40332C43.2104 0.40332 55.6129 12.8059 55.6129 28.1049Z" fill="#0052B4"></path><path d="M27.8371 28.1053H27.9117C27.9117 28.0801 27.9117 28.0559 27.9117 28.0308C27.8869 28.0557 27.862 28.0805 27.8371 28.1053Z" fill="#F0F0F0"></path><path d="M27.9114 14.8566C27.9114 9.98226 27.9114 6.78824 27.9114 0.403564H27.9067C12.6097 0.406053 0.209747 12.8074 0.209747 28.1051H14.6627V19.9664L22.8014 28.1051H27.8373C27.8621 28.0804 27.8868 28.0557 27.9115 28.0309C27.9115 26.1647 27.9115 24.4994 27.9115 22.9953L19.7727 14.8566H27.9114Z" fill="#F0F0F0"></path><path d="M14.2243 4.0166C9.89175 6.48367 6.28989 10.0855 3.82282 14.4181V28.105H11.0494V11.2433V11.2432H27.9112C27.9112 8.96394 27.9112 6.79261 27.9112 4.0166H14.2243Z" fill="#D80027"></path><path d="M27.9114 24.6984L18.0694 14.8565H14.6628C14.6628 14.8564 14.6628 14.8565 14.6628 14.8565L27.9113 28.1049H27.9114C27.9114 28.1049 27.9114 25.7562 27.9114 24.6984Z" fill="#D80027"></path><path d="M16.9166 32.9226L18.437 36.1016L21.8701 35.3081L20.3327 38.4788L23.0935 40.6682L19.656 41.443L19.6657 44.9667L16.9166 42.7622L14.1677 44.9667L14.1773 41.443L10.7397 40.6682L13.5007 38.4788L11.963 35.3081L15.3964 36.1016L16.9166 32.9226Z" fill="#F0F0F0"></path><path d="M41.6846 38.9448L42.4448 40.5343L44.1614 40.1375L43.3926 41.7229L44.7731 42.8176L43.0543 43.205L43.0591 44.9669L41.6846 43.8646L40.3101 44.9669L40.3149 43.205L38.5962 42.8176L39.9766 41.7229L39.2079 40.1375L40.9244 40.5343L41.6846 38.9448Z" fill="#F0F0F0"></path><path d="M34.613 22.083L35.3731 23.6726L37.0897 23.2757L36.321 24.8611L37.7014 25.9558L35.9827 26.3432L35.9874 28.1051L34.613 27.0027L33.2385 28.1051L33.2432 26.3432L31.5245 25.9558L32.9049 24.8611L32.1362 23.2757L33.8528 23.6726L34.613 22.083Z" fill="#F0F0F0"></path><path d="M41.6846 12.4475L42.4448 14.0371L44.1614 13.6403L43.3927 15.2257L44.773 16.3203L43.0543 16.7078L43.0591 18.4697L41.6846 17.3674L40.3101 18.4697L40.3149 16.7078L38.5962 16.3203L39.9765 15.2257L39.2079 13.6403L40.9244 14.0371L41.6846 12.4475Z" fill="#F0F0F0"></path><path d="M47.8616 19.6741L48.6217 21.2637L50.3383 20.8668L49.5696 22.4521L50.95 23.5469L49.2312 23.9344L49.236 25.6961L47.8616 24.5939L46.4871 25.6961L46.4918 23.9344L44.7731 23.5469L46.1535 22.4521L45.3848 20.8668L47.1013 21.2637L47.8616 19.6741Z" fill="#F0F0F0"></path><path d="M43.4447 28.105L44.0426 29.9452H45.9776L44.4121 31.0826L45.0102 32.9227L43.4447 31.7854L41.8793 32.9227L42.4772 31.0826L40.9118 29.9452H42.8467L43.4447 28.105Z" fill="#F0F0F0"></path></g><defs><clippath id="clip0_936_10552:S5:"><rect fill="white" height="55.4032" transform="translate(0.209686 0.40332)" width="55.4032"></rect></clippath></defs></svg>