<svg fill="none" role="img" viewBox="0 0 56 56" xmlns="http://www.w3.org/2000/svg"><title>Flag of Azerbaijan</title><g clip-path="url(#clip0_936_10573:Sl:)"><path d="M55.4193 28.1049C55.4193 24.7164 54.8099 21.4705 53.6963 18.4696L27.7177 17.2651L1.73909 18.4695C0.625611 21.4705 0.0160675 24.7164 0.0160675 28.1049C0.0160675 31.4934 0.625611 34.7393 1.73909 37.7402L27.7177 38.9447L53.6963 37.7403C54.8099 34.7393 55.4193 31.4934 55.4193 28.1049Z" fill="#D80027"></path><path d="M27.7177 55.8066C39.6284 55.8066 49.7822 48.289 53.6963 37.7402H1.73908C5.65313 48.289 15.807 55.8066 27.7177 55.8066Z" fill="#6DA544"></path><path d="M1.73908 18.4696H53.6964C49.7822 7.92085 39.6284 0.40332 27.7177 0.40332C15.807 0.40332 5.65313 7.92085 1.73908 18.4696Z" fill="#338AF3"></path><path d="M28.3198 35.9336C23.9962 35.9336 20.4911 32.4285 20.4911 28.1049C20.4911 23.7813 23.9962 20.2761 28.3198 20.2761C29.6679 20.2761 30.9365 20.617 32.0439 21.2171C30.3065 19.5181 27.9306 18.4695 25.3088 18.4695C19.9873 18.4695 15.6735 22.7834 15.6735 28.1048C15.6735 33.4262 19.9874 37.7401 25.3088 37.7401C27.9307 37.7401 30.3066 36.6914 32.0439 34.9924C30.9365 35.5928 29.6679 35.9336 28.3198 35.9336Z" fill="#F0F0F0"></path><path d="M34.3418 22.6851L35.3788 25.6014L38.1743 24.2724L36.8454 27.0679L39.7617 28.1049L36.8454 29.142L38.1743 31.9375L35.3788 30.6085L34.3418 33.5248L33.305 30.6085L30.5094 31.9375L31.8384 29.142L28.9219 28.1049L31.8384 27.0679L30.5094 24.2724L33.305 25.6014L34.3418 22.6851Z" fill="#F0F0F0"></path></g><defs><clippath id="clip0_936_10573:Sl:"><rect fill="white" height="55.4032" transform="translate(0.0161438 0.40332)" width="55.4032"></rect></clippath></defs></svg>