<svg fill="none" role="img" viewBox="0 0 56 56" xmlns="http://www.w3.org/2000/svg"><title>Flag of Bahrain</title><g clip-path="url(#clip0_936_10600:S8:)"><path d="M27.9274 55.8065C43.2266 55.8065 55.6291 43.4041 55.6291 28.1049C55.6291 12.8058 43.2266 0.40332 27.9274 0.40332C12.6283 0.40332 0.22583 12.8058 0.22583 28.1049C0.22583 43.4041 12.6283 55.8065 27.9274 55.8065Z" fill="#F0F0F0"></path><path d="M27.9275 0.40332C22.3681 0.40332 17.1923 2.04215 12.8539 4.86133L19.9783 9.63651L11.0657 14.2534L19.9783 18.8702L11.0657 23.4871L19.9783 28.1034L11.0657 32.7202L19.9783 37.3369L11.0657 41.9542L19.9783 46.5711L12.8531 51.3478C17.1916 54.1675 22.3678 55.8065 27.9275 55.8065C43.2266 55.8065 55.6291 43.404 55.6291 28.1049C55.6291 12.8059 43.2266 0.40332 27.9275 0.40332V0.40332Z" fill="#D80027"></path></g><defs><clippath id="clip0_936_10600:S8:"><rect fill="white" height="55.4032" transform="translate(0.22583 0.40332)" width="55.4032"></rect></clippath></defs></svg>