<svg fill="none" role="img" viewBox="0 0 57 57" xmlns="http://www.w3.org/2000/svg"><title>Flag of Belgium</title><g clip-path="url(#clip0_936_10645:Sg:)"><path d="M37.9498 2.52966C34.9488 1.41618 31.7029 0.806641 28.3145 0.806641C24.926 0.806641 21.6801 1.41618 18.6792 2.52966L16.2703 28.5083L18.6792 54.4868C21.6801 55.6004 24.926 56.2099 28.3145 56.2099C31.7029 56.2099 34.9488 55.6004 37.9498 54.4868L40.3586 28.5083L37.9498 2.52966Z" fill="#FFDA44"></path><path d="M56.0161 28.5083C56.0161 16.5977 48.4986 6.44372 37.9498 2.52979V54.4871C48.4986 50.5728 56.0161 40.4191 56.0161 28.5083Z" fill="#D80027"></path><path d="M0.612834 28.5083C0.612834 40.4191 8.13036 50.5728 18.6792 54.487V2.52979C8.13036 6.44372 0.612834 16.5977 0.612834 28.5083Z" fill="black"></path></g><defs><clippath id="clip0_936_10645:Sg:"><rect fill="white" height="55.4032" transform="translate(0.612915 0.806641)" width="55.4032"></rect></clippath></defs></svg>