<svg fill="none" role="presentation" viewBox="0 0 56 56" xmlns="http://www.w3.org/2000/svg"><title>Flag of Brazil</title><g clip-path="url(#clip0_936_10706:S3:)"><path d="M27.9113 55.6129C43.2105 55.6129 55.6129 43.2105 55.6129 27.9113C55.6129 12.6122 43.2105 0.209717 27.9113 0.209717C12.6121 0.209717 0.209686 12.6122 0.209686 27.9113C0.209686 43.2105 12.6121 55.6129 27.9113 55.6129Z" fill="#6DA544"></path><path d="M27.9112 11.0496L50.7951 27.9114L27.9112 44.7732L5.02729 27.9114L27.9112 11.0496Z" fill="#FFDA44"></path><path d="M27.9113 37.5467C33.2327 37.5467 37.5466 33.2328 37.5466 27.9114C37.5466 22.59 33.2327 18.2761 27.9113 18.2761C22.5898 18.2761 18.276 22.59 18.276 27.9114C18.276 33.2328 22.5898 37.5467 27.9113 37.5467Z" fill="#F0F0F0"></path><path d="M23.0935 27.3093C21.418 27.3093 19.801 27.5642 18.2789 28.037C18.3463 33.3003 22.6318 37.5469 27.9112 37.5469C31.1756 37.5469 34.0588 35.9219 35.8017 33.4384C32.8198 29.7055 28.2316 27.3093 23.0935 27.3093Z" fill="#0052B4"></path><path d="M37.3679 29.7575C37.4839 29.1597 37.5466 28.543 37.5466 27.9114C37.5466 22.5899 33.2327 18.2761 27.9113 18.2761C23.9407 18.2761 20.5321 20.6785 19.057 24.1085C20.3609 23.8383 21.7109 23.696 23.0937 23.696C28.69 23.6959 33.7527 26.0222 37.3679 29.7575Z" fill="#0052B4"></path></g><defs><clippath id="clip0_936_10706:S3:"><rect fill="white" height="55.4032" transform="translate(0.209686 0.209717)" width="55.4032"></rect></clippath></defs></svg>