<svg fill="none" role="presentation" viewBox="0 0 56 57" xmlns="http://www.w3.org/2000/svg"><title>Flag of Canada</title><g clip-path="url(#clip0_936_10838:S3:)"><path d="M27.9113 56.0163C43.2105 56.0163 55.6129 43.6138 55.6129 28.3146C55.6129 13.0155 43.2105 0.613037 27.9113 0.613037C12.6121 0.613037 0.209686 13.0155 0.209686 28.3146C0.209686 43.6138 12.6121 56.0163 27.9113 56.0163Z" fill="#F0F0F0"></path><path d="M55.6128 28.3147C55.6128 17.3321 49.2214 7.84255 39.9553 3.36182V53.2675C49.2214 48.7868 55.6128 39.2973 55.6128 28.3147Z" fill="#D80027"></path><path d="M0.209602 28.3147C0.209602 39.2973 6.60099 48.7868 15.8671 53.2676V3.36182C6.60099 7.84255 0.209602 17.3321 0.209602 28.3147Z" fill="#D80027"></path><path d="M32.7289 31.9279L37.5465 29.5191L35.1377 28.3147V25.9059L30.32 28.3147L32.7289 23.497H30.32L27.9112 19.8838L25.5023 23.497H23.0935L25.5023 28.3147L20.6846 25.9059V28.3147L18.2759 29.5191L23.0935 31.9279L21.8891 34.3368H26.7068V37.95H29.1156V34.3368H33.9333L32.7289 31.9279Z" fill="#D80027"></path></g><defs><clippath id="clip0_936_10838:S3:"><rect fill="white" height="55.4032" transform="translate(0.209686 0.613037)" width="55.4032"></rect></clippath></defs></svg>