<svg fill="none" role="img" viewBox="0 0 57 56" xmlns="http://www.w3.org/2000/svg"><title>Flag of People’s Republic of China</title><g clip-path="url(#clip0_936_10931:S6:)"><path d="M28.5081 55.4193C43.8072 55.4193 56.2097 43.0169 56.2097 27.7177C56.2097 12.4185 43.8072 0.0161133 28.5081 0.0161133C13.2089 0.0161133 0.806458 12.4185 0.806458 27.7177C0.806458 43.0169 13.2089 55.4193 28.5081 55.4193Z" fill="white"></path><rect fill="#EE1C25" height="30.6935" width="46.03" x="5.46648" y="12.3679"></rect><path d="M13.107 15.3518L14.1621 18.5983H17.5756L14.8162 20.6082L15.8713 23.8546L13.107 21.8495L10.3428 23.8546L11.4026 20.6082L8.63837 18.5983H12.0519L13.107 15.3518Z" fill="#FFFF00"></path><path d="M21.2603 27.8809L20.5431 26.8213L19.3137 27.1786L20.097 26.1688L19.3802 25.1045L20.5833 25.5404L21.3713 24.5311L21.3264 25.8115L22.5342 26.2479L21.3005 26.6L21.2603 27.8809Z" fill="#FFFF00"></path><path d="M22.8122 24.6317L23.1941 23.4095L22.1485 22.6695L23.428 22.6504L23.8052 21.4282L24.2205 22.6409L25.5 22.6265L24.4736 23.3904L24.8842 24.6031L23.8386 23.8631L22.8122 24.6317Z" fill="#FFFF00"></path><path d="M25.0749 17.2848L24.5115 18.4353L25.4282 19.3281L24.163 19.1467L23.5996 20.2925L23.38 19.0321L22.1101 18.8507L23.2463 18.2539L23.0267 16.9888L23.9434 17.8815L25.0749 17.2848Z" fill="#FFFF00"></path><path d="M21.5627 13.8L21.4672 15.0748L22.656 15.557L21.41 15.8625L21.3192 17.142L20.6461 16.0535L19.4 16.359L20.226 15.3803L19.548 14.2966L20.7368 14.7788L21.5627 13.8Z" fill="#FFFF00"></path></g><defs><clippath id="clip0_936_10931:S6:"><rect fill="white" height="55.4032" transform="translate(0.806458 0.0161133)" width="55.4032"></rect></clippath></defs></svg>