<svg fill="none" role="presentation" viewBox="0 0 56 56" xmlns="http://www.w3.org/2000/svg"><title>Flag of Finland</title><g clip-path="url(#clip0_936_11199:S3:)"><path d="M27.9113 55.6293C43.2105 55.6293 55.6129 43.2269 55.6129 27.9277C55.6129 12.6285 43.2105 0.226074 27.9113 0.226074C12.6121 0.226074 0.209686 12.6285 0.209686 27.9277C0.209686 43.2269 12.6121 55.6293 27.9113 55.6293Z" fill="#F0F0F0"></path><path d="M55.3784 24.3145H21.8893H21.8892V0.884521C19.3292 1.45219 16.9022 2.37229 14.6627 3.5943V24.3142V24.3144H0.444168C0.28997 25.4972 0.209679 26.7031 0.209679 27.9277C0.209679 29.1523 0.28997 30.3582 0.444168 31.5409H14.6626H14.6627V52.261C16.9022 53.4829 19.3292 54.4032 21.8892 54.9707V31.5412V31.541H55.3784C55.5324 30.3582 55.6129 29.1523 55.6129 27.9277C55.6129 26.7031 55.5324 25.4972 55.3784 24.3145Z" fill="#0052B4"></path></g><defs><clippath id="clip0_936_11199:S3:"><rect fill="white" height="55.4032" transform="translate(0.209686 0.226074)" width="55.4032"></rect></clippath></defs></svg>