<svg fill="none" role="presentation" viewBox="0 0 57 56" xmlns="http://www.w3.org/2000/svg"><title>Flag of France</title><g clip-path="url(#clip0_936_11202:S3:)"><path d="M28.3145 55.6293C43.6137 55.6293 56.0161 43.2269 56.0161 27.9277C56.0161 12.6285 43.6137 0.226074 28.3145 0.226074C13.0153 0.226074 0.612915 12.6285 0.612915 27.9277C0.612915 43.2269 13.0153 55.6293 28.3145 55.6293Z" fill="#F0F0F0"></path><path d="M56.0161 27.9276C56.0161 16.0168 48.4986 5.86302 37.9498 1.94897V53.9063C48.4986 49.9921 56.0161 39.8383 56.0161 27.9276Z" fill="#D80027"></path><path d="M0.612828 27.9276C0.612828 39.8383 8.13046 49.9921 18.6791 53.9062V1.94897C8.13046 5.86302 0.612828 16.0168 0.612828 27.9276Z" fill="#0052B4"></path></g><defs><clippath id="clip0_936_11202:S3:"><rect fill="white" height="55.4032" transform="translate(0.612915 0.226074)" width="55.4032"></rect></clippath></defs></svg>