<svg fill="none" role="presentation" viewBox="0 0 56 56" xmlns="http://www.w3.org/2000/svg"><title>Flag of Germany</title><g clip-path="url(#clip0_936_11238:S3:)"><path d="M1.75531 37.563C5.66935 48.1117 15.8232 55.6294 27.7339 55.6294C39.6446 55.6294 49.7985 48.1117 53.7125 37.563L27.7339 35.1543L1.75531 37.563Z" fill="#FFDA44"></path><path d="M27.7339 0.226074C15.8232 0.226074 5.66935 7.7436 1.75531 18.2924L27.7339 20.7011L53.7125 18.2923C49.7985 7.7436 39.6446 0.226074 27.7339 0.226074Z" fill="black"></path><path d="M1.75531 18.2925C0.641831 21.2935 0.0322876 24.5393 0.0322876 27.9278C0.0322876 31.3162 0.641831 34.5621 1.75531 37.5631H53.7126C54.8261 34.5621 55.4355 31.3162 55.4355 27.9278C55.4355 24.5393 54.8261 21.2935 53.7125 18.2925H1.75531Z" fill="#D80027"></path></g><defs><clippath id="clip0_936_11238:S3:"><rect fill="white" height="55.4032" transform="translate(0.0322266 0.226074)" width="55.4032"></rect></clippath></defs></svg>