<svg fill="none" role="img" viewBox="0 0 56 56" xmlns="http://www.w3.org/2000/svg"><title>Flag of Hungary</title><g clip-path="url(#clip0_936_11364:Sh:)"><path d="M2.14231 18.0988C1.02884 21.0999 0.419296 24.3456 0.419296 27.7341C0.419296 31.1226 1.02884 34.3685 2.14231 37.3694L28.1209 39.7782L54.0995 37.3694C55.213 34.3685 55.8225 31.1226 55.8225 27.7341C55.8225 24.3456 55.213 21.0999 54.0995 18.0988L28.1209 15.6899L2.14231 18.0988Z" fill="#F0F0F0"></path><path d="M28.1209 0.0324707C16.2103 0.0324707 6.05633 7.55 2.1424 18.0988H54.0997C50.1854 7.55 40.0317 0.0324707 28.1209 0.0324707Z" fill="#D80027"></path><path d="M28.1209 55.4357C40.0317 55.4357 50.1854 47.9182 54.0996 37.3694H2.1424C6.05633 47.9182 16.2103 55.4357 28.1209 55.4357Z" fill="#6DA544"></path></g><defs><clippath id="clip0_936_11364:Sh:"><rect fill="white" height="55.4032" transform="translate(0.419373 0.0324707)" width="55.4032"></rect></clippath></defs></svg>