<svg fill="none" role="img" viewBox="0 0 56 56" xmlns="http://www.w3.org/2000/svg"><title>Flag of Italy</title><g clip-path="url(#clip0_936_11412:Sj:)"><path d="M27.7178 55.8388C43.0169 55.8388 55.4194 43.4363 55.4194 28.1372C55.4194 12.838 43.0169 0.435547 27.7178 0.435547C12.4186 0.435547 0.0161438 12.838 0.0161438 28.1372C0.0161438 43.4363 12.4186 55.8388 27.7178 55.8388Z" fill="#F0F0F0"></path><path d="M55.4193 28.137C55.4193 16.2263 47.9018 6.07249 37.353 2.15845V54.1157C47.9018 50.2016 55.4193 40.0478 55.4193 28.137Z" fill="#D80027"></path><path d="M0.0160599 28.137C0.0160599 40.0478 7.53359 50.2016 18.0824 54.1156V2.15845C7.53359 6.07249 0.0160599 16.2263 0.0160599 28.137Z" fill="#6DA544"></path></g><defs><clippath id="clip0_936_11412:Sj:"><rect fill="white" height="55.4032" transform="translate(0.0161438 0.435547)" width="55.4032"></rect></clippath></defs></svg>