<svg fill="none" role="img" viewBox="0 0 56 56" xmlns="http://www.w3.org/2000/svg"><title>Flag of Mexico</title><g clip-path="url(#clip0_936_11648:So:)"><path d="M27.9593 55.8065C43.2585 55.8065 55.6609 43.4041 55.6609 28.1049C55.6609 12.8058 43.2585 0.40332 27.9593 0.40332C12.6601 0.40332 0.25769 12.8058 0.25769 28.1049C0.25769 43.4041 12.6601 55.8065 27.9593 55.8065Z" fill="#F0F0F0"></path><path d="M55.6611 28.105C55.6611 17.1224 49.2697 7.63284 40.0037 3.1521V53.0577C49.2697 48.5771 55.6611 39.0876 55.6611 28.105Z" fill="#D80027"></path><path d="M0.257935 28.105C0.257935 39.0876 6.64932 48.5771 15.9154 53.0578V3.1521C6.64932 7.63284 0.257935 17.1224 0.257935 28.105Z" fill="#6DA544"></path><path d="M20.733 28.1049C20.733 32.096 23.9685 35.3314 27.9596 35.3314C31.9507 35.3314 35.1861 32.096 35.1861 28.1049V25.696H20.733V28.1049Z" fill="#6DA544"></path><path d="M37.5949 23.2873H30.3683C30.3683 21.9569 29.2898 20.8784 27.9595 20.8784C26.6292 20.8784 25.5506 21.9569 25.5506 23.2873H18.3241C18.3241 24.6177 19.4829 25.6961 20.8131 25.6961H20.7329C20.7329 27.0266 21.8114 28.105 23.1418 28.105C23.1418 29.4354 24.2202 30.5138 25.5506 30.5138H30.3683C31.6988 30.5138 32.7772 29.4354 32.7772 28.105C34.1076 28.105 35.186 27.0266 35.186 25.6961H35.1058C36.4362 25.6961 37.5949 24.6177 37.5949 23.2873Z" fill="#FF9811"></path></g><defs><clippath id="clip0_936_11648:So:"><rect fill="white" height="55.4032" transform="translate(0.257935 0.40332)" width="55.4032"></rect></clippath></defs></svg>