<svg fill="none" role="img" viewBox="0 0 56 57" xmlns="http://www.w3.org/2000/svg"><title>Flag of United States of America</title><g clip-path="url(#clip0_936_12461:Sa:)"><path d="M28.1369 56.2421C43.4361 56.2421 55.8385 43.8397 55.8385 28.5405C55.8385 13.2413 43.4361 0.838867 28.1369 0.838867C12.8377 0.838867 0.435303 13.2413 0.435303 28.5405C0.435303 43.8397 12.8377 56.2421 28.1369 56.2421Z" fill="#F0F0F0"></path><path d="M26.9327 28.5408H55.8387C55.8387 26.0405 55.5054 23.6183 54.8844 21.3142H26.9327V28.5408Z" fill="#D80027"></path><path d="M26.9327 14.0876H51.7728C50.0771 11.3205 47.9089 8.87464 45.3809 6.86108H26.9327V14.0876Z" fill="#D80027"></path><path d="M28.1371 56.2423C34.6566 56.2423 40.649 53.9889 45.381 50.2202H10.8933C15.6253 53.9889 21.6176 56.2423 28.1371 56.2423Z" fill="#D80027"></path><path d="M4.50133 42.9936H51.7728C53.1342 40.7722 54.19 38.344 54.8844 35.7671H1.38977C2.08415 38.344 3.13995 40.7722 4.50133 42.9936Z" fill="#D80027"></path><path d="M13.2672 5.16486H15.7916L13.4435 6.87079L14.3404 9.6311L11.9924 7.92518L9.64436 9.6311L10.4191 7.24649C8.35169 8.96864 6.53961 10.9863 5.04632 13.2345H5.85519L4.36049 14.3204C4.12762 14.7088 3.90428 15.1035 3.69024 15.5039L4.40399 17.7007L3.07237 16.7332C2.74135 17.4345 2.43858 18.1516 2.16644 18.8837L2.9528 21.3041H5.85519L3.50704 23.01L4.40399 25.7703L2.05596 24.0644L0.649449 25.0863C0.508669 26.218 0.435303 27.3706 0.435303 28.5405H28.1369C28.1369 13.2414 28.1369 11.4378 28.1369 0.838867C22.6645 0.838867 17.5632 2.4263 13.2672 5.16486ZM14.3404 25.7703L11.9924 24.0644L9.64436 25.7703L10.5413 23.01L8.19316 21.3041H11.0956L11.9924 18.5438L12.8892 21.3041H15.7916L13.4435 23.01L14.3404 25.7703ZM13.4435 14.9404L14.3404 17.7007L11.9924 15.9948L9.64436 17.7007L10.5413 14.9404L8.19316 13.2345H11.0956L11.9924 10.4742L12.8892 13.2345H15.7916L13.4435 14.9404ZM24.2769 25.7703L21.9288 24.0644L19.5808 25.7703L20.4777 23.01L18.1296 21.3041H21.032L21.9288 18.5438L22.8257 21.3041H25.7281L23.3799 23.01L24.2769 25.7703ZM23.3799 14.9404L24.2769 17.7007L21.9288 15.9948L19.5808 17.7007L20.4777 14.9404L18.1296 13.2345H21.032L21.9288 10.4742L22.8257 13.2345H25.7281L23.3799 14.9404ZM23.3799 6.87079L24.2769 9.6311L21.9288 7.92518L19.5808 9.6311L20.4777 6.87079L18.1296 5.16486H21.032L21.9288 2.40455L22.8257 5.16486H25.7281L23.3799 6.87079Z" fill="#0052B4"></path></g><defs><clippath id="clip0_936_12461:Sa:"><rect fill="white" height="55.4032" transform="translate(0.435425 0.838867)" width="55.4032"></rect></clippath></defs></svg>