<svg fill="none" role="img" viewBox="0 0 57 56" xmlns="http://www.w3.org/2000/svg"><title>Flag of Netherlands</title><g clip-path="url(#clip0_936_11758:Si:)"><path d="M28.5391 55.6129C43.8383 55.6129 56.2407 43.2105 56.2407 27.9113C56.2407 12.6122 43.8383 0.209717 28.5391 0.209717C13.24 0.209717 0.837524 12.6122 0.837524 27.9113C0.837524 43.2105 13.24 55.6129 28.5391 55.6129Z" fill="#F0F0F0"></path><path d="M28.5391 0.209717C16.6284 0.209717 6.47453 7.72724 2.56049 18.276H54.5178C50.6036 7.72724 40.4498 0.209717 28.5391 0.209717Z" fill="#A2001D"></path><path d="M28.5391 55.613C40.4498 55.613 50.6036 48.0954 54.5177 37.5466H2.56049C6.47453 48.0954 16.6284 55.613 28.5391 55.613Z" fill="#0052B4"></path></g><defs><clippath id="clip0_936_11758:Si:"><rect fill="white" height="55.4032" transform="translate(0.837524 0.209717)" width="55.4032"></rect></clippath></defs></svg>