<svg fill="none" role="presentation" viewBox="0 0 56 56" xmlns="http://www.w3.org/2000/svg"><title>Flag of New Zealand</title><g clip-path="url(#clip0_936_11762:S3:)"><path d="M55.644 27.9113C55.644 43.2104 43.2415 55.6129 27.9424 55.6129C12.6433 55.6129 0.240784 43.2104 0.240784 27.9113C0.240784 27.9179 27.9424 0.212747 27.9424 0.209717C43.2415 0.209717 55.644 12.6122 55.644 27.9113Z" fill="#0052B4"></path><path d="M27.8682 27.912H27.9427C27.9427 27.8869 27.9427 27.8626 27.9427 27.8374C27.9179 27.8623 27.8931 27.8872 27.8682 27.912Z" fill="#F0F0F0"></path><path d="M27.9424 14.6627C27.9424 9.78842 27.9424 6.59461 27.9424 0.209717H27.9377C12.6407 0.212314 0.240784 12.6137 0.240784 27.9113H14.6938V19.7728L22.8324 27.9113H27.8684C27.8931 27.8867 27.9178 27.862 27.9425 27.8372C27.9425 25.9709 27.9425 24.3057 27.9425 22.8015L19.8037 14.6627H27.9424Z" fill="#F0F0F0"></path><path d="M14.2554 3.823C9.92281 6.29006 6.32095 9.89192 3.85388 14.2245V27.9114H11.0804V11.0498V11.0495H27.9423C27.9423 8.77033 27.9423 6.599 27.9423 3.823H14.2554Z" fill="#D80027"></path><path d="M27.9422 24.5048L18.1003 14.6628C18.1003 14.6628 14.6937 14.6631 14.6937 14.6628V14.6631L27.9421 27.9114H27.9422C27.9422 27.9114 27.9422 25.5625 27.9422 24.5048Z" fill="#D80027"></path><path d="M48.2131 20.7651L48.811 22.6053H50.7459L49.1805 23.7426L49.7785 25.5827L48.2131 24.4456L46.6477 25.5827L47.2456 23.7426L45.6802 22.6053H47.6151L48.2131 20.7651Z" fill="#D80027"></path><path d="M41.2965 34.0137L42.1935 36.7741H45.0958L42.7476 38.4799L43.6447 41.2402L41.2965 39.5343L38.9484 41.2402L39.8455 38.4799L37.4973 36.7741H40.3996L41.2965 34.0137Z" fill="#D80027"></path><path d="M41.5577 12.3342L42.3052 14.6347H44.7238L42.7669 16.056L43.5144 18.3563L41.5577 16.9345L39.601 18.3563L40.3484 16.056L38.3918 14.6347H40.8103L41.5577 12.3342Z" fill="#D80027"></path><path d="M34.9025 20.6848L35.7993 23.4452H38.7017L36.3536 25.1511L37.2506 27.9114L34.9025 26.2054L32.5544 27.9114L33.4514 25.1511L31.1033 23.4452H34.0056L34.9025 20.6848Z" fill="#D80027"></path></g><defs><clippath id="clip0_936_11762:S3:"><rect fill="white" height="55.4032" transform="translate(0.240723 0.209717)" width="55.4032"></rect></clippath></defs></svg>