<svg fill="none" role="img" viewBox="0 0 57 56" xmlns="http://www.w3.org/2000/svg"><title>Flag of Qatar</title><g clip-path="url(#clip0_936_11949:Sr:)"><path d="M28.3629 55.4193C43.662 55.4193 56.0645 43.0169 56.0645 27.7177C56.0645 12.4185 43.662 0.0161133 28.3629 0.0161133C13.0637 0.0161133 0.661255 12.4185 0.661255 27.7177C0.661255 43.0169 13.0637 55.4193 28.3629 55.4193Z" fill="#F0F0F0"></path><path d="M56.0643 27.7177C56.0643 12.4186 43.6618 0.0161133 28.3627 0.0161133C22.9436 0.0161133 17.8887 1.57379 13.6189 4.26344L19.6909 6.84326L11.5009 10.3231L19.6909 13.8028L11.5009 17.2823L19.6909 20.7618L11.5009 24.2408L19.6909 27.7197L11.5009 31.1993L19.6909 34.6786L11.5009 38.1577L19.6909 41.637L11.5009 45.1166L19.6909 48.5957L13.6217 51.1741C17.8908 53.8624 22.9446 55.4193 28.3627 55.4193C43.6618 55.4193 56.0643 43.0168 56.0643 27.7177Z" fill="#751A46"></path></g><defs><clippath id="clip0_936_11949:Sr:"><rect fill="white" height="55.4032" transform="translate(0.661011 0.0161133)" width="55.4032"></rect></clippath></defs></svg>