<svg fill="none" role="img" viewBox="0 0 56 57" xmlns="http://www.w3.org/2000/svg"><title>Flag of Saudi Arabia</title><g clip-path="url(#clip0_936_12042:S9:)"><path d="M27.9433 56.226C43.2425 56.226 55.6449 43.8235 55.6449 28.5244C55.6449 13.2252 43.2425 0.822754 27.9433 0.822754C12.6441 0.822754 0.241699 13.2252 0.241699 28.5244C0.241699 43.8235 12.6441 56.226 27.9433 56.226Z" fill="#6DA544"></path><path d="M15.8994 33.9443C15.8994 35.9398 17.5171 37.5576 19.5126 37.5576H30.3523C30.3523 39.2205 31.7004 40.5686 33.3634 40.5686H36.9766C38.6396 40.5686 39.9876 39.2205 39.9876 37.5576V33.9443H15.8994Z" fill="#F0F0F0"></path><path d="M40.2888 16.4805V24.9114C40.2888 26.2397 39.2082 27.3202 37.8799 27.3202V30.9335C41.2006 30.9335 43.902 28.2319 43.902 24.9114V16.4805H40.2888Z" fill="#F0F0F0"></path><path d="M14.3938 24.9114C14.3938 26.2397 13.3132 27.3202 11.9849 27.3202V30.9335C15.3055 30.9335 18.007 28.2319 18.007 24.9114V16.4805H14.3938V24.9114Z" fill="#F0F0F0"></path><path d="M34.8689 16.4805H38.4821V24.9114H34.8689V16.4805Z" fill="#F0F0F0"></path><path d="M29.449 21.2979C29.449 21.63 29.1788 21.9001 28.8468 21.9001C28.5148 21.9001 28.2446 21.6299 28.2446 21.2979V16.4802H24.6314V21.2979C24.6314 21.63 24.3612 21.9001 24.0292 21.9001C23.6972 21.9001 23.427 21.6299 23.427 21.2979V16.4802H19.8137V21.2979C19.8137 23.6224 21.7048 25.5134 24.0292 25.5134C24.9245 25.5134 25.7546 25.2321 26.4381 24.7542C27.1214 25.232 27.9517 25.5134 28.8469 25.5134C29.0272 25.5134 29.2045 25.5008 29.3788 25.4786C29.1228 26.5335 28.1727 27.32 27.0403 27.32V30.9332C30.3609 30.9332 33.0623 28.2317 33.0623 24.9111V21.2979V16.4802H29.4491V21.2979H29.449Z" fill="#F0F0F0"></path><path d="M19.8137 27.3201H25.2336V30.9333H19.8137V27.3201Z" fill="#F0F0F0"></path></g><defs><clippath id="clip0_936_12042:S9:"><rect fill="white" height="55.4032" transform="translate(0.241821 0.822754)" width="55.4032"></rect></clippath></defs></svg>