<svg fill="none" role="img" viewBox="0 0 57 57" xmlns="http://www.w3.org/2000/svg"><title>Flag of Singapore</title><g clip-path="url(#clip0_936_12084:Sm:)"><path d="M28.3624 56.226C43.6616 56.226 56.064 43.8235 56.064 28.5244C56.064 13.2252 43.6616 0.822754 28.3624 0.822754C13.0632 0.822754 0.660767 13.2252 0.660767 28.5244C0.660767 43.8235 13.0632 56.226 28.3624 56.226Z" fill="#F0F0F0"></path><path d="M0.660767 28.5245C0.660767 13.2253 13.0633 0.822754 28.3624 0.822754C43.6615 0.822754 56.064 13.2253 56.064 28.5245" fill="#D80027"></path><path d="M17.5229 15.2758C17.5229 11.2398 20.3594 7.8682 24.1471 7.04094C23.565 6.9139 22.961 6.84497 22.3405 6.84497C17.6841 6.84497 13.9095 10.6195 13.9095 15.2759C13.9095 19.9323 17.6841 23.7068 22.3405 23.7068C22.9608 23.7068 23.5649 23.6379 24.1471 23.5107C20.3594 22.6835 17.5229 19.3119 17.5229 15.2758Z" fill="#F0F0F0"></path><path d="M28.3627 7.44702L28.9607 9.28712H30.8956L29.3301 10.4245L29.9281 12.2646L28.3627 11.1274L26.7973 12.2646L27.3953 10.4245L25.83 9.28712H27.7647L28.3627 7.44702Z" fill="#F0F0F0"></path><path d="M23.6691 11.0603L24.2669 12.9005H26.2018L24.6365 14.0378L25.2344 15.8779L23.6691 14.7407L22.1035 15.8779L22.7016 14.0378L21.1361 12.9005H23.071L23.6691 11.0603Z" fill="#F0F0F0"></path><path d="M33.0563 11.0603L33.6544 12.9005H35.5892L34.0237 14.0378L34.6218 15.8779L33.0563 14.7407L31.491 15.8779L32.0889 14.0378L30.5236 12.9005H32.4583L33.0563 11.0603Z" fill="#F0F0F0"></path><path d="M31.2498 16.4802L31.8478 18.3204H33.7825L32.2172 19.4577L32.8151 21.2978L31.2498 20.1606L29.6844 21.2978L30.2824 19.4577L28.717 18.3204H30.6517L31.2498 16.4802Z" fill="#F0F0F0"></path><path d="M25.4756 16.4802L26.0735 18.3204H28.0085L26.443 19.4577L27.0411 21.2978L25.4756 20.1606L23.9101 21.2978L24.5081 19.4577L22.9427 18.3204H24.8776L25.4756 16.4802Z" fill="#F0F0F0"></path></g><defs><clippath id="clip0_936_12084:Sm:"><rect fill="white" height="55.4032" transform="translate(0.661011 0.822754)" width="55.4032"></rect></clippath></defs></svg>