<svg fill="none" role="img" viewBox="0 0 56 57" xmlns="http://www.w3.org/2000/svg"><title>Flag of Spain</title><g clip-path="url(#clip0_936_12192:Sk:)"><path d="M3.05176e-05 28.331C3.05176e-05 31.7195 0.609574 34.9653 1.72305 37.9663L27.7016 40.3751L53.6802 37.9663C54.7937 34.9653 55.4033 31.7195 55.4033 28.331C55.4033 24.9425 54.7937 21.6967 53.6802 18.6957L27.7016 16.2869L1.72305 18.6957C0.609574 21.6967 3.05176e-05 24.9425 3.05176e-05 28.331H3.05176e-05Z" fill="#FFDA44"></path><path d="M53.6802 18.6957C49.7662 8.14703 39.6123 0.629395 27.7016 0.629395C15.7909 0.629395 5.63707 8.14703 1.72302 18.6957H53.6802Z" fill="#D80027"></path><path d="M1.72302 37.9663C5.63707 48.515 15.7909 56.0326 27.7016 56.0326C39.6123 56.0326 49.7662 48.515 53.6802 37.9663H1.72302Z" fill="#D80027"></path></g><defs><clippath id="clip0_936_12192:Sk:"><rect fill="white" height="55.4032" transform="translate(0 0.629395)" width="55.4032"></rect></clippath></defs></svg>