<svg fill="none" role="presentation" viewBox="0 0 57 56" xmlns="http://www.w3.org/2000/svg"><title>Flag of Thailand</title><g clip-path="url(#clip0_936_12294:S3:)"><path d="M28.3466 55.4357C43.6457 55.4357 56.0482 43.0333 56.0482 27.7341C56.0482 12.4349 43.6457 0.0324707 28.3466 0.0324707C13.0474 0.0324707 0.644958 12.4349 0.644958 27.7341C0.644958 43.0333 13.0474 55.4357 28.3466 55.4357Z" fill="#F0F0F0"></path><path d="M54.3252 18.0989H2.36804C1.25446 21.0998 0.64502 24.3457 0.64502 27.7342C0.64502 31.1226 1.25446 34.3685 2.36804 37.3695H54.3253C55.4388 34.3685 56.0482 31.1226 56.0482 27.7342C56.0482 24.3457 55.4388 21.0998 54.3252 18.0989Z" fill="#0052B4"></path><path d="M28.3467 0.0324707C19.9506 0.0324707 12.4276 3.76829 7.34747 9.66776H49.3458C44.2658 3.76829 36.7428 0.0324707 28.3467 0.0324707Z" fill="#D80027"></path><path d="M49.346 45.8003H7.34753C12.4276 51.6998 19.9507 55.4356 28.3468 55.4356C36.7428 55.4356 44.2659 51.6998 49.346 45.8003Z" fill="#D80027"></path></g><defs><clippath id="clip0_936_12294:S3:"><rect fill="white" height="55.4032" transform="translate(0.64502 0.0324707)" width="55.4032"></rect></clippath></defs></svg>