<svg fill="none" role="img" viewBox="0 0 56 56" xmlns="http://www.w3.org/2000/svg"><title>Flag of United Arab Emirates</title><g clip-path="url(#clip0_936_12434:Ss:)"><path d="M27.9595 55.8388C43.2587 55.8388 55.6612 43.4363 55.6612 28.1372C55.6612 12.838 43.2587 0.435547 27.9595 0.435547C12.6604 0.435547 0.257935 12.838 0.257935 28.1372C0.257935 43.4363 12.6604 55.8388 27.9595 55.8388Z" fill="#F0F0F0"></path><path d="M15.9153 37.7725L18.3241 54.116C21.325 55.2296 24.571 55.8388 27.9594 55.8388C39.87 55.8388 50.024 48.3213 53.9379 37.7725H15.9153Z" fill="black"></path><path d="M15.9153 18.5019L18.3241 2.15835C21.325 1.04477 24.571 0.435547 27.9594 0.435547C39.87 0.435547 50.024 7.95307 53.9379 18.5019H15.9153Z" fill="#6DA544"></path><path d="M0.257812 28.137C0.257812 40.0478 7.77545 50.2016 18.3241 54.1156V2.15845C7.77545 6.07249 0.257812 16.2263 0.257812 28.137Z" fill="#A2001D"></path></g><defs><clippath id="clip0_936_12434:Ss:"><rect fill="white" height="55.4032" transform="translate(0.257812 0.435547)" width="55.4032"></rect></clippath></defs></svg>