<svg fill="none" role="presentation" viewBox="0 0 57 56" xmlns="http://www.w3.org/2000/svg"><title>Flag of Great Britain</title><g clip-path="url(#clip0_936_12439:S3:)"><path d="M0.707642 13.9725V20.0232H9.35167L0.707642 13.9725ZM-12 61.5H20.6743V47.6587V38.6971L-12 61.5ZM36.0333 38.6986V61.5H69.5L36.0333 38.6986ZM0.707642 35.3762V41.4269L9.35474 35.3762H0.707642ZM48.8381 7.74072L36.0333 -5.5V16.7023L48.8381 7.74072ZM55.9999 41.4284V35.3762H47.3513L55.9999 41.4284ZM55.9999 20.0232V13.9725L47.3544 20.0232H55.9999ZM20.6743 -5.5L7.87107 7.74072L20.6743 16.7023V-5.5Z" fill="#00247D"></path><path d="M39.3201 35.3764L54.2367 45.8181C54.9652 45.0679 55.4887 44.1433 55.7572 43.1328L44.6757 35.3764H39.3201ZM20.6743 35.3764H17.3859L2.4708 45.8165C3.27101 46.6302 4.29699 47.2121 5.44737 47.4823L20.6743 36.8242V35.3764ZM36.0332 20.0234H39.3216L54.2367 9.58329C53.4227 8.75772 52.3911 8.18006 51.2617 7.91748L36.0332 18.5756V20.0234ZM17.3859 20.0234L2.4708 9.58329C1.74272 10.334 1.21876 11.2584 0.94873 12.2685L12.0302 20.0234H17.3859Z" fill="#CF1B2B"></path><path d="M55.9999 32.3056H32.9615V57.5H36.0333V38.6986L48.835 47.6587H49.8564C50.6723 47.6588 51.4801 47.4961 52.2323 47.18C52.9845 46.8638 53.666 46.4008 54.2367 45.8179L39.3201 35.3762H44.6758L55.7573 43.1326C55.9001 42.6152 55.9999 42.0794 55.9999 41.5175V41.4284L47.3513 35.3762H55.9999V32.3056ZM0.707642 32.3056V35.3762H9.35474L0.707642 41.4269V41.5175C0.707642 43.1925 1.3819 44.7078 2.47085 45.8163L17.386 35.3762H20.6743V36.824L5.44742 47.4806C5.89897 47.5881 6.36589 47.6587 6.85123 47.6587H7.87107L20.6743 38.6971V57.5H23.7461V32.3056H0.707642ZM55.9999 13.882C56.0009 12.2729 55.3674 10.7284 54.2367 9.58309L39.3216 20.0232H36.0333V18.5754L51.2617 7.91728C50.8016 7.80448 50.33 7.74523 49.8564 7.74072H48.8381L36.0333 16.7023V0H32.9615V23.0938H55.9999V20.0232H47.3544L55.9999 13.9725V13.882ZM20.6743 0V16.7023L7.87107 7.74072H6.85123C6.03509 7.74037 5.22712 7.90318 4.47486 8.21958C3.72259 8.53598 3.04123 8.99957 2.47085 9.58309L17.386 20.0232H12.0303L0.948777 12.2683C0.796386 12.793 0.71528 13.3357 0.707642 13.882L0.707642 13.9725L9.35167 20.0232H0.707642V23.0938H23.7461V0H20.6743Z" fill="#EEEEEE"></path><path d="M32.9615 23.0938V0H23.7461V23.0938H0.707642V32.3056H23.7461V58H32.9615V32.3056H55.9999V23.0938H32.9615Z" fill="#CF1B2B"></path></g><defs><clippath id="clip0_936_12439:S3:"><rect fill="white" height="55.4032" rx="27.7016" width="55.4032" x="0.661011" y="0.435547"></rect></clippath></defs></svg>