<svg viewBox="0 0 128 18" fill="none" xmlns="http://www.w3.org/2000/svg">
<path d="M0 16.4868H15.5097L14.6184 17.7277H0V16.4868Z" fill="black"/>
<path d="M127.911 17.7277H108.925L109.905 16.4868H128V17.7277H127.911Z" fill="black"/>
<path d="M0 14.1821H17.2925L16.312 15.4231H0V14.1821Z" fill="black"/>
<path d="M0 11.8779H19.0752L18.0947 13.1188H0V11.8779Z" fill="black"/>
<path d="M127.911 15.4231H110.708L111.688 14.1821H128V15.4231H127.911Z" fill="black"/>
<path d="M113.381 11.8779H127.911V13.1188H112.401L113.381 11.8779Z" fill="black"/>
<path d="M16.7578 17.7283L24.9584 6.82568C24.9584 6.82568 34.0503 6.82568 35.1199 6.82568C36.2787 6.82568 36.2787 7.26887 35.6547 7.97798C35.1199 8.68709 34.1394 10.0167 33.6046 10.7258C33.3372 11.169 32.8024 11.7895 34.496 11.7895C36.3678 11.7895 48.1338 11.7895 48.1338 11.7895C47.0642 13.385 43.3205 17.817 36.7244 17.817C31.3762 17.7283 16.7578 17.7283 16.7578 17.7283Z" fill="black"/>
<path d="M63.7328 11.8779L59.276 17.8167H47.5991L52.0559 11.8779H63.7328Z" fill="black"/>
<path d="M80.757 11.8779L76.3002 17.8167H64.5342L68.991 11.8779H80.757Z" fill="black"/>
<path d="M84.5905 11.8779C84.5905 11.8779 83.6991 13.0302 83.3425 13.562C81.8272 15.5121 83.1643 17.8167 87.9776 17.8167C93.5041 17.8167 106.875 17.8167 106.875 17.8167L111.331 11.8779H84.5905Z" fill="black"/>
<path d="M22.5514 0.088639L18.4512 5.49562C18.4512 5.49562 39.5765 5.49562 40.7353 5.49562C41.894 5.49562 41.894 5.93881 41.2701 6.64792C40.7353 7.35704 39.7548 8.68662 39.22 9.39573C38.9525 9.75027 38.4177 10.4594 40.1113 10.4594C41.9832 10.4594 49.2032 10.4594 49.2032 10.4594C49.2032 10.4594 50.7185 8.50934 51.8773 6.8252C53.5709 4.60923 52.0556 0 46.0835 0C40.7353 0.088639 22.5514 0.088639 22.5514 0.088639Z" fill="black"/>
<path d="M81.7381 10.4596H53.0361L60.8801 0.0888672H72.6461L68.1893 6.02768H73.4484L77.9052 0.0888672H89.6712L81.7381 10.4596Z" fill="black"/>
<path d="M105.894 0.0888672L98.0499 10.4596H85.5708L93.4148 0.0888672H105.894Z" fill="black"/>
</svg>
