<svg viewBox="0 0 604 604" fill="none" xmlns="http://www.w3.org/2000/svg">
<path d="M498.887 64.3664L563.251 0H547.162L482.793 64.3664H498.887Z" fill="black"/>
<path d="M373.131 138.66H389.222L463.51 64.3665H447.422L373.131 138.66Z" fill="black"/>
<path d="M539.408 94.1931H507.037L398.811 202.424H431.181L539.408 94.1931Z" fill="black"/>
<path d="M502.781 94.1931H468.244L360.024 202.417H349.31L210.479 341.256H221.802L360.629 202.424H394.555L502.781 94.1931Z" fill="black"/>
<path d="M267.781 370.318L376.011 262.092H341.469L233.243 370.318H267.781Z" fill="black"/>
<path d="M90.6777 236.985L283.362 44.2988H248.82L56.1357 236.985H90.6777Z" fill="black"/>
<path d="M87.8858 112.403L200.286 0H183.117L70.7139 112.403H87.8858Z" fill="black"/>
<path d="M545.048 0H527.878L463.51 64.3664H480.682L545.048 0Z" fill="black"/>
<path d="M0 281.795V293.113L56.1353 236.985H44.8123L0 281.795Z" fill="black"/>
<path d="M353.848 138.66H371.017L445.311 64.3665H428.139L353.848 138.66Z" fill="black"/>
<path d="M30.5937 308.306L0 338.9V354.993L46.6874 308.306H30.5937Z" fill="black"/>
<path d="M279.76 155.269H255.605L3.58594 407.28H27.7468L279.76 155.269Z" fill="black"/>
<path d="M0 180.325V196.417L65.027 131.388H48.9354L0 180.325Z" fill="black"/>
<path d="M94.9258 236.985H127.297L319.98 44.2988H287.612L94.9258 236.985Z" fill="black"/>
<path d="M0 319.618V336.788L28.4821 308.306H11.3102L0 319.618Z" fill="black"/>
<path d="M196.664 380.149L86.1133 490.7H97.4362L207.987 380.149H196.664Z" fill="black"/>
<path d="M31.2457 236.985L0 268.23V280.31L43.325 236.985H31.2457Z" fill="black"/>
<path d="M269.289 204.674H278.292L344.305 138.66H335.303L269.289 204.674Z" fill="black"/>
<path d="M151.994 341.25L218.008 275.238H209.005L142.998 341.25H151.994Z" fill="black"/>
<path d="M279.4 204.674H287.834L353.848 138.66H345.412L279.4 204.674Z" fill="black"/>
<path d="M603.206 401.836H591.889L500.253 493.472H511.569L603.206 401.836Z" fill="black"/>
<path d="M93.5768 548.566L38.1426 604H54.2342L109.664 548.566H93.5768Z" fill="black"/>
<path d="M558.188 382.6L604 336.788V319.618L541.022 382.6H558.188Z" fill="black"/>
<path d="M587.604 298.215H598.926L604 293.141V281.818L587.604 298.215Z" fill="black"/>
<path d="M604 338.9L560.3 382.6H576.394L604 354.993V338.9Z" fill="black"/>
<path d="M54.2343 0H38.1427L19.2832 18.8594H35.3769L54.2343 0Z" fill="black"/>
<path d="M88.214 0H79.2115L29.6816 49.5299H38.6842L88.214 0Z" fill="black"/>
<path d="M29.6817 49.5298H18.3651L0 67.895V79.2115L29.6817 49.5298Z" fill="black"/>
<path d="M0 54.3283V66.4034L16.8736 49.5298H4.80064L0 54.3283Z" fill="black"/>
<path d="M486.686 493.472H498.761L590.397 401.836H578.324L486.686 493.472Z" fill="black"/>
<path d="M204.68 453.951L130.393 528.244H146.48L220.767 453.957H232.847L316.486 370.318H304.404L220.772 453.951H204.68Z" fill="black"/>
<path d="M314.366 434.631L144.999 604H161.093L330.46 434.631H314.366Z" fill="black"/>
<path d="M380.262 262.092L272.036 370.318H304.405L412.631 262.092H380.262Z" fill="black"/>
<path d="M268.638 580.975H291.277L574.037 298.215H551.398L268.638 580.975Z" fill="black"/>
<path d="M74.2936 548.566L18.8594 604H36.0292L91.457 548.566H74.2936Z" fill="black"/>
<path d="M375.214 545.016L525.362 394.875H508.192L358.049 545.016H375.214Z" fill="black"/>
<path d="M574.037 298.215H586.119L604 280.333V268.254L574.037 298.215Z" fill="black"/>
<path d="M317.971 370.318L234.332 453.957H245.655L329.294 370.318H317.971Z" fill="black"/>
<path d="M295.083 434.631L125.716 604H142.886L312.254 434.631H295.083Z" fill="black"/>
<path d="M282.737 155.269L30.7197 407.28H53.3592L305.377 155.269H282.737Z" fill="black"/>
<path d="M143.934 548.28H134.932L79.2119 604H88.2144L143.934 548.28Z" fill="black"/>
<path d="M223.311 580.975H206.139L183.116 604H200.286L223.311 580.975Z" fill="black"/>
<path d="M0 161.042V178.21L46.8216 131.388H29.6519L0 161.042Z" fill="black"/>
<path d="M527.475 394.875L377.326 545.016H393.42L543.567 394.875H527.475Z" fill="black"/>
<path d="M548.428 298.215H524.267L241.511 580.975H265.667L548.428 298.215Z" fill="black"/>
<path d="M241.511 580.975H225.423L202.4 604H218.49L241.511 580.975Z" fill="black"/>
<path d="M72.5486 490.7H84.628L195.179 380.149H183.1L72.5465 490.7H56.4591L0 547.162V563.251L72.5486 490.7Z" fill="black"/>
<path d="M39.792 49.5299H48.232L97.7576 0H89.3219L39.792 49.5299Z" fill="black"/>
<path d="M106.06 19.6563H123.231L142.886 0H125.716L106.06 19.6563Z" fill="black"/>
<path d="M54.3475 490.7H37.1756L0 527.878V545.048L54.3475 490.7Z" fill="black"/>
<path d="M604 493.249V484.248L548.05 540.198H557.052L604 493.249Z" fill="black"/>
<path d="M558.16 540.198H566.594L603.999 502.792V494.359L558.16 540.198Z" fill="black"/>
<path d="M604.001 563.251V547.162L547.162 604H563.254L604.001 563.251Z" fill="black"/>
<path d="M36.0293 0H18.8595L0 18.8594H17.1698L36.0293 0Z" fill="black"/>
<path d="M604 545.048V527.878L527.878 604H545.048L604 545.048Z" fill="black"/>
<path d="M418.31 545.016H406.987L348.007 604H359.326L418.31 545.016Z" fill="black"/>
<path d="M591.19 459.804H579.117L434.917 604H446.996L591.19 459.804Z" fill="black"/>
<path d="M405.502 545.016H393.42L334.44 604H346.518L405.502 545.016Z" fill="black"/>
<path d="M604 459.804H592.681L448.483 604H459.804L604 459.804Z" fill="black"/>
<path d="M125.343 19.6563H141.437L161.093 0H144.999L125.343 19.6563Z" fill="black"/>
<path d="M153.473 548.28H145.04L89.3223 604H97.758L153.473 548.28Z" fill="black"/>
<path d="M119.916 418.254L196.914 341.25H180.826L103.822 418.254H115.269H119.916Z" fill="black"/>
<path d="M202.566 453.951H185.397L111.109 528.245H128.279L202.566 453.951Z" fill="black"/>
<path d="M527.54 224.743H515.46L379.864 360.344H391.946L527.54 224.743Z" fill="black"/>
<path d="M347.825 202.417H335.746L196.913 341.25L208.995 341.256L347.825 202.417Z" fill="black"/>
<path d="M66.0135 418.237L0 484.248V493.249L75.0097 418.237H66.0135Z" fill="black"/>
<path d="M514.867 187.627L440.58 261.921H456.667L530.961 187.627H514.867Z" fill="black"/>
<path d="M76.1219 418.237L0 494.359V502.793L84.5555 418.237H76.1219Z" fill="black"/>
<path d="M219.116 275.238L153.103 341.25H161.543L227.556 275.238H219.116Z" fill="black"/>
<path d="M178.712 341.25H161.543L84.5557 418.237L101.708 418.254L178.712 341.25Z" fill="black"/>
<path d="M328.425 19.5818H339.741L359.323 0H348.007L328.425 19.5818Z" fill="black"/>
<path d="M89.9971 112.403H106.091L218.489 0H202.4L89.9971 112.403Z" fill="black"/>
<path d="M324.832 110.082H336.914L446.996 0H434.919L324.832 110.082Z" fill="black"/>
<path d="M338.399 110.082H349.722L459.805 0H448.484L338.399 110.082Z" fill="black"/>
<path d="M314.858 19.5818H326.933L346.515 0H334.44L314.858 19.5818Z" fill="black"/>
<path d="M484.268 187.627H495.584L604 79.2115V67.895L484.268 187.627Z" fill="black"/>
<path d="M438.46 261.921L512.754 187.627H495.584L421.297 261.921H438.46Z" fill="black"/>
<path d="M470.701 187.627H482.776L604 66.4035V54.3284L470.701 187.627Z" fill="black"/>
<path d="M559.591 224.762H575.685L604 196.444V180.349L559.591 224.762Z" fill="black"/>
<path d="M540.331 224.763H557.477L604 178.235V161.07L540.324 224.743H529.025L393.431 360.344H404.747L540.331 224.763Z" fill="black"/>
</svg>
