<svg viewBox="0 0 1568 251" fill="none" xmlns="http://www.w3.org/2000/svg">
<path d="M1143.94 247.144V54.3718H1050.06V0H1303.71V54.3718H1209.83V247.144H1143.94Z" fill="black"/>
<path d="M1375.21 0L1431.21 181.574C1432.09 183.994 1432.96 185.925 1433.84 187.341C1434.72 188.782 1436.15 189.477 1438.11 189.477C1440.3 189.477 1441.89 188.808 1442.9 187.495C1443.9 186.182 1444.83 184.097 1445.7 181.239L1502.04 0H1567.26L1505.98 192.772C1500.27 210.562 1492.36 224.618 1482.25 234.942C1472.14 245.265 1457.87 250.44 1439.42 250.44C1419.43 250.44 1404.45 245.599 1394.46 235.945C1384.48 226.291 1376.39 211.9 1370.24 192.772L1307.01 0H1375.21Z" fill="black"/>
<path d="M249.362 140.795L139.776 247.144H0L173.902 74.5038C238.553 10.5036 269.72 0 379.95 0H815.359L720.857 92.5506H392.406C310.049 92.5506 292.522 98.909 249.336 140.795H249.362ZM706.755 107.328H394.388C311.439 107.328 298.467 113.687 260.841 151.299L165.023 247.144H294.633L325.465 216.303C345.848 195.914 354.934 193.982 396.009 193.982H620.123L706.755 107.328ZM740.544 247.144L988.285 0H834.407L587.335 247.144H740.568H740.544Z" fill="black"/>
<path d="M844.601 247.145C836.804 247.145 830.315 244.544 825.166 239.318C819.992 234.092 817.424 227.682 817.424 220.062C817.424 212.441 819.992 206.031 825.117 200.857C830.235 195.682 836.699 193.082 844.497 193.082C852.294 193.082 858.728 195.682 863.821 200.908C868.921 206.134 871.465 212.545 871.465 220.165C871.465 227.785 868.946 234.195 863.877 239.37C858.807 244.544 852.399 247.145 844.601 247.145ZM844.442 197.329C838.063 197.329 832.712 199.543 828.386 203.972C824.085 208.399 821.928 213.754 821.928 220.062C821.928 226.369 824.085 231.724 828.386 236.151C832.681 240.58 838.039 242.794 844.442 242.794C850.85 242.794 856.178 240.606 860.503 236.203C864.804 231.801 866.961 226.446 866.961 220.113C866.961 213.78 864.804 208.399 860.503 203.972C856.208 199.543 850.85 197.329 844.442 197.329ZM839.169 224.567V235.174H833.222V205.181H844.497C848.38 205.181 851.317 205.902 853.271 207.37C855.225 208.811 856.208 210.999 856.208 213.908C856.208 216.818 855.821 218.98 855.022 220.396C854.224 221.812 852.884 222.945 850.979 223.82L856.62 235.199H850.365L845.24 224.593H839.194L839.169 224.567ZM839.065 209.816V219.907H845.111C846.967 219.907 848.306 219.521 849.105 218.723C849.929 217.925 850.34 216.637 850.34 214.861C850.34 211.489 848.227 209.816 843.981 209.816H839.065Z" fill="black"/>
</svg>
