<svg width="470" height="212" viewBox="0 0 470 212" fill="none" xmlns="http://www.w3.org/2000/svg">
<path d="M337.776 192.593L324.976 210.878H328.415L332.927 204.45H346.759C352.228 204.45 355.856 202.555 357.867 198.683C358.275 198.089 358.513 197.396 358.557 196.676C358.6 195.957 358.446 195.24 358.113 194.601C357.305 193.286 355.481 192.593 352.812 192.593H337.776ZM339.41 195.111H352.566C353.9 195.111 354.746 195.41 355.066 195.992C355.232 196.373 355.291 196.792 355.234 197.203C355.178 197.614 355.009 198.002 354.747 198.323C353.899 199.436 352.808 200.34 351.557 200.966C350.306 201.591 348.928 201.922 347.53 201.932H334.637L339.41 195.111Z" fill="black"/>
<path d="M203.506 192.274C195.499 192.274 189.09 193.907 183.771 201.425C181.535 204.658 180.765 206.614 181.704 208.418C182.644 210.223 185.461 211.01 190.893 211.01C198.956 211.01 205.083 210.373 210.627 201.84C212.469 199.002 212.957 196.746 212.074 195.13C211.021 193.231 208.167 192.274 203.506 192.274ZM202.17 194.902H202.206C205.308 194.902 208.562 195.09 209.295 196.481C209.784 197.439 209.22 199.057 207.548 201.425C203.413 207.327 199.164 208.4 192.247 208.4C188.883 208.4 185.406 208.209 184.729 206.818C184.259 205.878 184.916 204.264 186.796 201.877C191.363 195.994 195.554 194.902 202.17 194.902Z" fill="black"/>
<path d="M145.785 192.498L133.006 210.878H136.387L140.899 204.358H154.771C160.241 204.358 163.883 202.46 165.876 198.588C166.28 197.994 166.518 197.302 166.564 196.585C166.611 195.867 166.464 195.151 166.14 194.509C165.313 193.194 163.49 192.498 160.821 192.498H145.785ZM147.44 195.111H160.597C161.931 195.111 162.778 195.41 163.078 195.992C163.254 196.37 163.319 196.789 163.265 197.202C163.212 197.614 163.043 198.003 162.777 198.323C161.93 199.436 160.839 200.34 159.588 200.966C158.337 201.591 156.959 201.922 155.56 201.932H142.665L147.44 195.111Z" fill="black"/>
<path d="M88.4272 192.322C88.3574 192.322 88.2876 192.324 88.218 192.329C84.8542 192.372 81.6386 193.719 79.25 196.088L61.0203 210.878H65.5135L71.6769 205.919H87.1094L86.243 210.878H89.4L91.5621 196.576C91.694 196.03 91.7018 195.461 91.5849 194.912C91.468 194.362 91.2294 193.846 90.8867 193.401C90.5743 193.06 90.1942 192.788 89.7707 192.602C89.3472 192.416 88.8897 192.321 88.4272 192.322ZM87.3883 194.895C87.7809 194.887 88.1624 195.024 88.4602 195.28C88.5796 195.503 88.6528 195.748 88.6755 195.999C88.6982 196.251 88.67 196.505 88.5924 196.745L87.5205 203.154H75.0028L82.5207 197.101C83.7868 195.838 85.4564 195.06 87.2378 194.902C87.2878 194.897 87.3381 194.895 87.3883 194.895Z" fill="black"/>
<path d="M328.283 162.125C324.806 162.125 322.835 163.517 319.866 166.13L300.091 183.438H306.03L311.988 178.251H326.462L325.673 183.438H330.203L332.494 167.18C332.628 166.56 332.619 165.917 332.468 165.302C332.317 164.686 332.028 164.112 331.622 163.625C331.216 163.137 330.704 162.749 330.126 162.489C329.547 162.229 328.917 162.105 328.283 162.125ZM326.896 166.203C327.798 166.203 328.21 166.766 328.059 167.65H328.096L327.119 174.419H316.444L324.337 167.65C325.352 166.766 325.993 166.203 326.896 166.203Z" fill="black"/>
<path d="M178.771 162.407L165.182 183.42H170.82L175.464 176.184H187.38C190.876 176.184 188.995 179.022 188.995 179.022L186.102 183.401H191.59L194.182 179.437C196.174 176.354 193.675 174.83 193.675 174.83H193.62C196.233 173.965 198.901 173.328 200.518 169.569C203.469 162.747 195.573 162.407 195.573 162.407H178.771ZM181.892 166.486H193.749C193.749 166.486 196.965 166.487 196.138 169.1C195.18 172.069 191.007 172.011 191.007 172.011H190.97H178.133L181.892 166.486Z" fill="black"/>
<path d="M153.042 162.011C146.238 162.011 141.765 163.76 138.006 167.293C135.71 169.398 134.094 172.14 133.363 175.167C133.203 176.034 133.23 176.925 133.441 177.78C133.651 178.636 134.041 179.437 134.585 180.131C136.577 182.724 140.713 184.04 146.464 184.04C155.861 184.04 162.194 180.621 165.145 173.629C165.771 172.408 166.084 171.05 166.054 169.678C166.025 168.306 165.654 166.963 164.976 165.77C162.758 162.368 157.703 162.011 153.042 162.011ZM153.284 166.203C154.54 166.19 155.795 166.246 157.043 166.372C157.043 166.372 162.681 166.88 161.478 171.221L161.309 171.166C161.215 171.429 161.124 171.672 161.03 171.878C159.489 175.637 156.422 179.793 146.291 179.793C145.033 179.798 143.776 179.703 142.532 179.51H142.213L141.35 179.323C137.591 178.346 138.117 175.565 138.399 174.738C138.967 173.15 139.857 171.697 141.013 170.469C143.061 168.439 146.105 166.203 153.284 166.203Z" fill="black"/>
<path d="M82.0912 162.125C78.6142 162.125 76.6398 163.517 73.6702 166.13L53.8988 183.438H59.8346L65.7925 178.251H80.2668L79.4776 183.438H84.0075L86.2981 167.18C86.4324 166.56 86.4239 165.918 86.273 165.302C86.1222 164.687 85.833 164.113 85.4275 163.626C85.022 163.139 84.5108 162.751 83.9327 162.49C83.3546 162.23 82.7249 162.105 82.0912 162.125ZM80.6596 166.203C81.543 166.203 81.9957 166.766 81.8453 167.65H81.882L80.9055 174.419H70.249L78.123 167.65C79.1379 166.766 79.7762 166.203 80.6596 166.203Z" fill="black"/>
<path d="M329.054 0C307.101 0 296.671 12.3279 293.927 16.1996C293.1 17.3649 281.615 35.4865 281.615 35.4865H404.704L394.763 51.554H299.21C290.939 51.5767 282.797 53.6005 275.479 57.4525C268.16 61.3045 261.883 66.8703 257.182 73.6747C256.749 74.2386 231.398 114.123 216.325 137.842L214.574 140.566H362.455C391.531 140.566 403.934 120.288 404.047 120.1L414.329 103.185H289.474L299.68 86.8716H395.534C397.413 86.8716 399.291 86.8702 401.077 86.6256C422.635 84.7461 431.769 74.4845 436.787 66.8726C437.013 66.5343 467.047 16.7839 468.269 14.5661C470.28 11.0138 470.939 7.12255 468.045 3.47633C466.504 1.46527 463.081 0.15036 458.871 0H329.054ZM329.073 1.7657H458.89C461.233 1.76275 463.536 2.3795 465.564 3.55342H329.054C308.812 3.55342 299.531 14.4734 296.824 18.27C296.467 18.7775 286.993 33.6988 286.993 33.6988H284.868C289.322 26.6694 294.866 17.9678 295.392 17.2348C297.967 13.6074 307.985 1.7657 329.073 1.7657ZM299.133 53.3197H393.636L392.637 55.1074H299.21C291.501 55.1277 283.912 57.0197 277.095 60.621C270.279 64.2222 264.439 69.4249 260.078 75.7818C259.589 76.4773 249.065 92.9973 221.06 137.053L219.856 138.818H217.808C242.749 99.6121 258.01 75.6484 258.555 74.765C263.077 68.1723 269.132 62.7764 276.2 59.0409C283.268 55.3054 291.138 53.342 299.133 53.3197ZM288.344 105.046L411.172 105.065L410.082 106.812H287.254L288.344 105.046Z" fill="black"/>
<path d="M162.946 0.018362C123.477 0.018362 104.682 34.3962 104.682 34.3962L63.9901 102.058L38.393 143.216C63.0896 143.216 79.1588 138.594 90.5673 132.523C99.4701 127.494 106.946 120.282 112.292 111.566L128.381 87.1322H210.084C225.665 87.1322 237.128 73.9758 237.128 73.9758L254.344 49.7516H150.972L160.369 35.5416L261.939 35.6737L284.868 0.0183563L162.946 0.018362ZM159.525 1.9933H281.277L280.114 3.8728H160.935C158.585 3.77882 127.178 4.86643 108.195 36.5547L100.115 49.8617H97.6889C97.4257 49.8617 105.864 36.0849 105.864 36.0849C105.864 36.0849 123.082 4.13593 159.525 1.9933ZM96.6353 51.6494L250.831 51.7228L249.664 53.36H98.1404L44.6298 141.337H41.9794L96.6353 51.6494Z" fill="black"/>
<path d="M5.80077 210.879C2.75599 210.879 0.951676 210.24 0.256263 209C-0.439151 207.759 0.256263 205.091 2.64322 201.613C6.96606 195.43 11.7212 192.686 18.0927 192.686H33.6925L31.813 195.392H17.4724C12.7925 195.392 9.31543 197.497 5.89475 202.384C4.67308 204.113 3.33864 206.143 3.8461 207.196C4.16561 207.816 5.36849 208.135 7.51111 208.135H22.9606L20.8931 210.879H5.80077Z" fill="black"/>
<path d="M299.171 210.785L304.471 203.117H286.785L281.466 210.785H277.858L290.657 192.498H294.285L288.778 200.373H306.464L311.971 192.498H315.617L302.817 210.785H299.171Z" fill="black"/>
<path d="M49.5178 210.785L54.818 203.117H37.132L31.813 210.785H28.2044L41.0037 192.498H44.6311L39.1054 200.373H56.7915L62.3172 192.498H65.9634L53.1453 210.785H49.5178Z" fill="black"/>
<path d="M121.202 210.879L131.107 196.783L114.774 206.97H112.349L109.117 195.843L98.6666 210.879H95.1332L107.951 192.592H109.831C110.883 192.592 111.598 193.306 111.936 194.697L114.605 203.794L131.069 193.588C132.172 192.837 133.498 192.485 134.828 192.592H137.516L124.698 210.879H121.202Z" fill="black"/>
<path d="M165.464 210.785L178.282 192.498H181.74L168.941 210.785H165.464ZM311.595 210.785L324.413 192.498H327.871L315.053 210.785H311.595Z" fill="black"/>
<path d="M246.188 210.879L248.068 208.154H263.949C268.084 208.154 269.588 207.684 270.791 205.899C271.223 205.335 271.355 204.865 271.186 204.508C271.016 204.151 269.945 203.549 268.479 203.399L259.608 202.44C258.349 202.309 256.15 201.858 255.473 200.354C255.283 199.827 255.24 199.258 255.349 198.708C255.459 198.158 255.716 197.649 256.093 197.234C257.175 195.665 258.652 194.41 260.375 193.595C262.098 192.78 264.005 192.434 265.904 192.592H282.181L280.301 195.242H265.077C263.969 195.193 262.866 195.403 261.854 195.857C260.842 196.31 259.951 196.995 259.251 197.854C257.897 199.734 260.472 199.884 261.732 200.035L270.716 200.956C271.441 200.97 272.152 201.161 272.787 201.511C273.422 201.861 273.963 202.361 274.362 202.967C274.591 203.501 274.681 204.083 274.625 204.662C274.57 205.24 274.369 205.794 274.042 206.275C272.163 209.77 269.607 210.879 263.592 210.879H246.188Z" fill="black"/>
<path d="M236.659 210.879C232.712 210.879 231.227 209 230.081 202.328C228.934 195.655 228.559 195.336 226.548 195.336H226.435L215.552 210.879H212.019L224.837 192.592H226.717C230.476 192.592 232.017 194.81 232.957 201.087C233.99 207.985 234.836 207.985 236.716 207.985H236.81L247.617 192.592H251.376L238.52 210.879H236.659Z" fill="black"/>
<path d="M57.844 162.445L44.1801 183.439H49.4614L63.1442 162.445H57.844Z" fill="black"/>
<path d="M380.29 197.385H378.843L381.268 192.817L376.964 196.031H376.287L375.31 193.099L373.017 197.385H371.645L374.858 191.314H376.212L377.208 194.547L381.681 191.314H383.561L380.29 197.385Z" fill="black"/>
<path d="M367.134 197.385H365.799L368.431 192.423H365.517L366.1 191.314H373.205L372.622 192.423H369.859L367.134 197.385Z" fill="black"/>
<path d="M35.666 166.73H50.232L53.0513 162.445H36.7749C29.4824 162.445 26.2121 163.441 21.5509 170.621L13.3 183.439H18.8069L23.5056 176.184H43.3343L45.8904 172.293H26.0617L26.4376 171.711C29.2193 167.388 30.8169 166.73 35.666 166.73Z" fill="black"/>
<path d="M118.213 166.73H132.779L135.599 162.445H119.322C112.03 162.445 108.76 163.441 104.098 170.621L95.8474 183.439H101.354L106.072 176.184H125.882L128.438 172.293H108.609L108.985 171.711C111.786 167.388 113.364 166.73 118.213 166.73Z" fill="black"/>
<path d="M236.565 162.445C235.107 162.557 233.72 163.122 232.599 164.061L218.691 174.774L216.624 164.061C216.511 163.272 216.361 162.445 214.744 162.445H210.854L197.19 183.439H202.828L212.921 167.933L215.083 179.097H219.217L233.878 167.82L223.747 183.364H229.386L243.049 162.37L236.565 162.445Z" fill="black"/>
<path d="M270.772 162.445L263.668 173.289C260.378 178.364 257.202 179.511 251.094 179.511C244.985 179.511 243.576 178.364 246.884 173.289L254.007 162.37H248.895L241.79 173.289C236.828 180.92 240.512 183.796 249.684 183.796C260.548 183.796 264.025 180.92 268.987 173.289L276.091 162.37L270.772 162.445Z" fill="black"/>
<path d="M279.568 174.755L287.5 162.426H282.218L274.212 174.755C270.359 180.582 273.76 183.439 280.17 183.439H295.337L298.006 179.266H281.73C277.444 179.266 277.313 178.176 279.568 174.755Z" fill="black"/>
<path d="M374.295 164.738C373.261 163.065 371.024 162.426 367.51 162.426H355.011L352.342 166.58H368.393C368.731 166.58 369.803 166.58 369.953 167.35C370.027 167.646 370.003 167.959 369.884 168.24C369.766 168.521 369.559 168.757 369.295 168.91C367.998 169.756 353.921 173.139 350.162 174.286C347.347 175.294 345 177.301 343.565 179.924C341.892 182.48 341.347 183.345 341.347 183.345H364.822L367.585 179.153H349.955C350.369 178.627 350.857 178.289 352.53 177.781C356.026 176.748 363.563 174.774 364.484 174.549C372.753 172.387 373.524 170.564 374.125 169.662C374.625 168.927 374.907 168.066 374.937 167.177C374.966 166.289 374.744 165.411 374.295 164.644" fill="black"/>
</svg>
