<svg width="471" height="211" viewBox="0 0 471 211" fill="none" xmlns="http://www.w3.org/2000/svg">
<path d="M202.019 192.371C206.653 192.371 209.512 193.333 210.528 195.216C211.414 196.822 210.918 199.073 209.09 201.879C203.552 210.335 197.515 211 189.502 211C184.13 211 181.303 210.209 180.379 208.418C179.456 206.627 180.216 204.723 182.431 201.474C187.711 193.922 194.08 192.371 202.019 192.371ZM159.589 192.613C162.229 192.613 164.059 193.297 164.872 194.626C165.196 195.258 165.343 195.965 165.297 196.674C165.252 197.382 165.015 198.065 164.613 198.65C162.619 202.509 159.073 204.373 153.534 204.373H139.947L135.479 210.764H132.1L144.819 192.613H159.589ZM225.134 192.613C228.827 192.613 230.417 194.81 231.34 201.051C232.374 207.901 233.186 207.899 235.033 207.899H235.141L245.869 192.613H249.563L236.839 210.764H235.01C231.096 210.764 229.62 208.917 228.494 202.271C227.367 195.624 226.961 195.346 224.967 195.346H224.855L214.056 210.764H210.568L223.287 192.613H225.134ZM262.5 192.599C263.037 192.563 263.577 192.568 264.114 192.613H280.288L278.328 195.253H263.208C262.11 195.202 261.015 195.409 260.011 195.858C259.007 196.308 258.122 196.986 257.428 197.839C256.099 199.685 258.645 199.87 259.901 199.999L268.82 200.921C269.552 200.924 270.272 201.107 270.916 201.455C271.559 201.803 272.107 202.305 272.511 202.915C272.742 203.445 272.833 204.026 272.775 204.602C272.717 205.177 272.513 205.728 272.181 206.201C270.335 209.654 267.787 210.764 261.805 210.764H244.467L246.313 208.047H262.172C266.271 208.047 267.711 207.588 268.966 205.834C269.391 205.262 269.522 204.781 269.356 204.431C269.19 204.08 268.137 203.489 266.66 203.359L257.853 202.397C256.616 202.25 254.436 201.808 253.735 200.312C253.557 199.789 253.521 199.227 253.631 198.686C253.742 198.144 253.994 197.641 254.363 197.229C255.282 195.893 256.492 194.782 257.901 193.98C259.31 193.179 260.882 192.707 262.5 192.599ZM350.282 192.613C352.922 192.613 354.748 193.295 355.56 194.624C355.884 195.256 356.031 195.963 355.986 196.672C355.94 197.38 355.704 198.064 355.301 198.648C353.307 202.507 349.761 204.372 344.222 204.372H330.488L326.019 210.764H322.695L335.417 192.613H350.282ZM31.7466 195.234H17.3999C12.7472 195.234 9.2942 197.302 5.89696 202.158C4.69689 203.894 3.36915 205.979 3.86766 206.939C4.18178 207.567 5.38075 207.863 7.55907 207.863H22.9761L20.9263 210.704L5.80712 210.762C2.79757 210.762 0.987154 210.133 0.267079 208.804C-0.452974 207.474 0.266076 204.926 2.62938 201.418C6.93116 195.288 11.6587 192.555 17.9731 192.555L33.5923 192.554L31.7466 195.234ZM38.8931 200.423H56.4516L61.9165 192.595H65.5542L52.813 210.762H49.2153L54.4761 203.136H36.9165L31.6382 210.762H28.0532L40.7759 192.595H44.3569L38.8931 200.423ZM87.6391 192.299C88.1352 192.271 88.6316 192.356 89.0913 192.544C89.551 192.732 89.9632 193.021 90.2974 193.389C90.6295 193.832 90.8606 194.342 90.9751 194.884C91.0896 195.426 91.085 195.986 90.9604 196.525L88.7632 210.687L85.6821 210.762L86.5288 205.851H71.2065L65.0942 210.762H60.644L78.7388 195.991C81.1187 193.659 84.3075 192.336 87.6391 192.299ZM130.159 193.479C131.247 192.753 132.545 192.409 133.85 192.501H136.621L123.899 210.649L120.393 210.762L130.23 196.766L114.003 206.792H111.601L108.392 195.879L98.0132 210.651H94.5044L107.227 192.501H109.074C110.126 192.501 110.922 193.203 111.162 194.588L113.82 203.615L130.159 193.479ZM167.791 210.762H164.335L177.058 192.595H180.509L167.791 210.762ZM286.766 200.423H304.323L309.809 192.595H313.426L300.704 210.762H297.086L302.366 203.136H284.791L279.528 210.762H275.926L288.649 192.595H292.228L286.766 200.423ZM312.875 210.762H309.421L322.144 192.595H325.577L312.875 210.762ZM200.697 195.012C194.133 195.013 189.959 196.086 185.439 201.916C183.593 204.298 182.93 205.906 183.374 206.829C184.057 208.214 187.509 208.397 190.758 208.397C197.608 208.397 201.838 207.326 205.956 201.474C207.599 199.11 208.169 197.507 207.67 196.565C206.955 195.208 203.759 195.014 200.711 195.012H200.697ZM86.6587 194.901C84.8951 195.059 83.2429 195.83 81.9888 197.08L74.603 203.099H86.936L88.0073 196.731C88.0867 196.492 88.1163 196.238 88.0942 195.987C88.0721 195.736 87.9983 195.492 87.8784 195.271C87.7104 195.13 87.5156 195.026 87.3061 194.963C87.0966 194.9 86.8762 194.877 86.6587 194.901ZM141.702 201.881H154.553C155.941 201.872 157.309 201.545 158.55 200.924C159.792 200.303 160.875 199.405 161.714 198.3C161.977 197.98 162.145 197.592 162.201 197.182C162.256 196.771 162.196 196.353 162.028 195.975C161.732 195.421 160.865 195.105 159.554 195.105H146.446L141.702 201.881ZM332.334 201.881H345.147C346.536 201.873 347.905 201.546 349.147 200.925C350.389 200.304 351.472 199.406 352.312 198.3C352.575 197.979 352.744 197.592 352.799 197.182C352.855 196.771 352.795 196.353 352.626 195.975C352.331 195.421 351.481 195.105 350.152 195.105H337.043L332.334 201.881ZM371.902 192.004L372.882 195.181L377.292 192.004H379.138L375.964 197.949H374.58L376.959 193.479L372.658 196.619H371.995L371.035 193.737L368.762 197.949H367.415L370.574 192.003L371.902 192.004ZM368.338 193.074H365.569L363.04 197.948H361.728L364.331 193.074H361.467L362.042 192.003H368.912L368.338 193.074ZM155.527 159.729C160.161 159.73 165.183 160.173 167.38 163.57C168.08 164.77 168.463 166.128 168.496 167.517C168.528 168.905 168.207 170.279 167.564 171.51C164.628 178.489 158.406 181.867 148.953 181.867C143.248 181.867 139.129 180.575 137.154 177.99C136.613 177.298 136.223 176.5 136.01 175.648C135.797 174.797 135.765 173.909 135.916 173.044C136.578 169.965 138.163 167.162 140.46 165.008C144.208 161.463 148.751 159.729 155.527 159.729ZM248.582 171.232C245.387 176.254 246.715 177.398 252.771 177.398C258.827 177.398 262.001 176.254 265.288 171.232L272.361 160.338H277.643L270.572 171.232C265.643 178.821 262.189 181.665 251.37 181.665C242.23 181.665 238.576 178.821 243.505 171.232L250.577 160.338H255.653L248.582 171.232ZM52.7593 164.953H39.3901C34.6081 164.953 33.0396 165.601 30.2886 169.866L29.9194 170.363H48.3833L45.8706 174.221H27.4077L22.7554 181.388H17.311L25.4712 168.7C30.0686 161.61 33.2967 160.633 40.479 160.633H55.5288L52.7593 164.953ZM84.2759 160.338C84.9023 160.321 85.5254 160.446 86.0962 160.705C86.6668 160.964 87.1707 161.349 87.5708 161.831C87.9709 162.313 88.2568 162.88 88.4058 163.488C88.5547 164.097 88.5632 164.731 88.4311 165.344L86.1597 181.388H81.6909L82.4653 176.256H68.1763L62.269 181.388H56.4155L75.9507 164.29C78.8862 161.705 80.8418 160.338 84.2759 160.338ZM52.0552 181.386H46.8296L60.3266 160.651H65.5522L52.0552 181.386ZM216.936 160.338C218.524 160.338 218.782 161.171 218.782 161.965L220.848 172.617L234.678 161.965C235.792 161.021 237.175 160.452 238.63 160.338L244.999 160.355L231.392 181.257H225.853L235.933 165.805L221.331 176.882H217.213L215.072 165.805L205.006 181.238H199.467L213.059 160.338H216.936ZM135.418 164.622H120.907C116.033 164.622 114.446 165.269 111.676 169.57L111.303 170.144H131.082L128.495 174.021H108.813L104.142 181.239H98.605L106.8 168.481C111.453 161.336 114.704 160.338 121.959 160.338L138.206 160.337L135.418 164.622ZM280.983 172.6C278.731 176.015 278.878 177.084 283.143 177.084H299.339L296.677 181.239H281.575C275.205 181.239 271.827 178.397 275.667 172.6L283.623 160.338H288.888L280.983 172.6ZM329.598 160.042C330.228 160.022 330.854 160.145 331.428 160.403C332.003 160.662 332.511 161.048 332.914 161.532C333.316 162.017 333.602 162.587 333.75 163.199C333.899 163.811 333.907 164.45 333.771 165.065L331.502 181.239H326.994L327.787 176.068H313.371L307.442 181.239H301.517L321.217 164.013C324.171 161.409 326.127 160.042 329.598 160.042ZM371.323 160.338C375.772 160.338 377.176 162.702 376.862 165.047H376.809C376.44 167.798 374.206 170.236 370.125 170.882C370.718 171.14 371.206 171.59 371.514 172.158C371.822 172.727 371.931 173.382 371.824 174.02C371.547 177.047 369.255 181.239 361.002 181.239H343.48L346.232 176.956H361.926C365.342 176.956 366.562 175.754 366.894 174.554C367.153 173.667 366.6 172.506 364.883 172.506H349.758L352.307 168.594H366.69C369.792 168.594 371.102 167.687 371.453 166.303C371.711 165.306 370.92 164.457 369.258 164.457H354.486L357.367 160.338H371.323ZM196.903 160.321C196.903 160.321 204.731 160.652 201.795 167.446C200.189 171.176 197.53 171.823 194.945 172.672C194.945 172.672 197.418 174.186 195.443 177.251L192.861 181.185H187.411L190.292 176.843C190.292 176.843 192.157 174.02 188.667 174.02H176.813L172.198 181.222H166.659L180.174 160.338H196.903V160.321ZM155.656 164.013C148.492 164.013 145.462 166.23 143.431 168.261C142.284 169.484 141.398 170.929 140.827 172.506C140.55 173.392 140.069 176.087 143.761 177.084L144.63 177.252H144.944C146.221 177.44 147.512 177.527 148.803 177.511L148.822 177.582C158.902 177.582 161.951 173.41 163.484 169.718C163.588 169.483 163.679 169.242 163.757 168.997C165.049 164.695 159.347 164.178 159.347 164.178C158.121 164.056 156.888 164.001 155.656 164.013ZM82.8354 164.29C81.9495 164.29 81.3059 164.844 80.3091 165.712L72.5727 172.415H83.0786L83.9819 165.712C84.1296 164.844 83.7217 164.29 82.8354 164.29ZM328.141 164.013C327.255 164.013 326.607 164.566 325.592 165.452L317.802 172.191H328.343L329.302 165.452C329.45 164.566 329.027 164.013 328.141 164.013ZM179.476 169.866H192.254C192.277 169.866 196.41 169.912 197.368 166.966L197.349 166.931C198.158 164.338 194.99 164.326 194.965 164.326H183.17L179.476 169.866ZM286.982 0.000976562L264.179 35.4307L163.424 35.4492L154.009 49.5547H256.721L239.604 73.5586C239.604 73.5586 228.234 86.5771 212.743 86.5771H131.501L115.512 110.781C110.202 119.452 102.775 126.632 93.9302 131.646C82.5936 137.684 66.4562 142.169 42.0845 142.169L67.5268 101.437L107.946 34.1592C108.019 34.0255 126.616 0 165.829 0L286.982 0.000976562ZM45.644 140.321H48.2651L101.532 53.0098H252.434L253.8 51.3652L99.9448 51.3086L45.644 140.321ZM459.6 0.333008C466.339 0.573033 468.168 3.34255 468.445 3.69336C473.337 9.71246 466.414 19.1102 466.469 19.0732C457.256 34.0286 445.79 53.3232 443.223 57.2744C438.644 65.1394 429.635 66.2286 425.942 66.8379C425.968 66.8502 430.19 68.823 430.963 71.7676C432.034 75.848 429.708 79.1534 426.496 84.6924C426.33 85.024 406.275 117.486 406.186 117.631C406.186 117.631 393.668 139.326 364.292 139.64H217.286L240.624 102.713H364.846L374.577 86.7793H250.871L273.785 51.6982H395.92L406.056 35.2842H284.068L295.146 17.6699C306.889 0.000395584 330.67 0.277344 330.67 0.277344L459.6 0.333008ZM220.75 137.663H222.799L242.851 106.185H362.995L363.99 104.577L241.853 104.576L220.75 137.663ZM254.113 85.0996H256.254L275.958 54.875H394.234L395.101 53.3408H274.792L254.113 85.0996ZM162.46 1.97656C126.266 4.06018 109.129 35.8234 109.083 35.9102C109.083 35.9102 100.736 49.5391 100.976 49.5391H103.378L111.465 36.3184C116.8 27.2137 124.222 19.5073 133.121 13.835C142.019 8.16256 152.138 4.68645 162.644 3.69336L282.271 3.82227L283.415 1.97656H162.46ZM333.625 1.80176C328.82 1.68716 308.883 2.18377 297.428 17.4668L287.255 33.3633H289.397C289.45 33.2761 297.894 19.4738 299.348 17.6514C300.807 15.8235 309.744 3.06551 334.578 3.06543L464.893 3.10254C462.652 2.25334 460.273 1.8278 457.876 1.84668H334.689C334.689 1.84668 334.311 1.81813 333.625 1.80176Z" fill="black"/>
</svg>
