<svg viewBox="0 0 24 17" fill="none" xmlns="http://www.w3.org/2000/svg" role="img" class="Logo-module_monochrome__ffDAR" style="height:32px"><title>FIA</title><path fill-rule="evenodd" clip-rule="evenodd" d="M15.8178 0C14.4387 0 13.1393 0.341335 11.9994 0.943929C10.8598 0.341485 9.56103 0 8.1822 0C3.66334 0 0 3.66304 0 8.18182C0 12.7004 3.66334 16.3636 8.1822 16.3636C9.56118 16.3636 10.8601 16.0218 11.9997 15.4191C13.1396 16.0218 14.4387 16.3636 15.8178 16.3636C20.3367 16.3636 24 12.7004 24 8.18182C24 3.66304 20.3367 0 15.8178 0ZM14.1939 13.7312C14.719 13.8884 15.2635 13.9698 15.8178 13.9698C17.1522 13.9698 18.3812 13.5054 19.3548 12.7287H21.7518L21.0511 10.5147C21.3588 9.80706 21.5302 9.02584 21.5302 8.2048C21.5302 5.02612 18.9676 2.43997 15.8178 2.43997C15.2756 2.43997 14.7413 2.51629 14.2261 2.66698C13.705 2.09623 13.104 1.59986 12.4413 1.19497C12.7407 1.04999 13.0511 0.924098 13.3706 0.818032L13.5307 1.41627L14.4038 1.18235L14.2435 0.583514C14.6089 0.508096 14.9836 0.458068 15.3659 0.435983V1.0557H16.2696V0.436434C16.6518 0.458368 17.0267 0.507645 17.3922 0.583063L17.2316 1.18235L18.1047 1.41627L18.2653 0.81728C18.6261 0.937168 18.9751 1.0829 19.3103 1.25206L19.0011 1.7875L19.7839 2.23941L20.0919 1.70607C20.4073 1.9146 20.7064 2.14536 20.9874 2.3964L20.5536 2.82998L21.1928 3.46923L21.625 3.03701C21.8746 3.31855 22.104 3.61842 22.3112 3.93421L21.7835 4.23889L22.2353 5.02162L22.7618 4.71769C22.9292 5.05257 23.0731 5.40111 23.1914 5.76138L22.6066 5.91792L22.8407 6.79109L23.4224 6.63515C23.4961 6.99917 23.544 7.37235 23.5649 7.7529H22.9673V8.65686H23.562C23.539 9.03651 23.489 9.40909 23.4133 9.77206L22.8407 9.61867L22.6068 10.4918L23.1774 10.6448C23.0575 11.0028 22.9124 11.3491 22.7439 11.6817L22.2353 11.3881L21.7835 12.1709L22.2891 12.4629C22.0818 12.7756 21.8525 13.0723 21.6032 13.351L21.1928 12.9407L20.5536 13.5798L20.9627 13.9887C20.6831 14.2366 20.3859 14.4644 20.0727 14.6702L19.7839 14.1703L19.0011 14.6223L19.2896 15.1218C18.9571 15.2883 18.6112 15.4317 18.2538 15.5498L18.1047 14.9936L17.2316 15.2274L17.3804 15.783C17.0189 15.8569 16.6478 15.9054 16.2696 15.9271V15.3541H15.3659V15.9275C14.9875 15.9057 14.6167 15.8567 14.2551 15.7827L14.4038 15.2276L13.5307 14.9936L13.3818 15.5494C13.0583 15.4424 12.7443 15.3153 12.4413 15.1687C13.0905 14.7719 13.6804 14.2872 14.1939 13.7312ZM8.29639 15.9391V15.8368C9.33475 14.9831 10.1825 13.9315 10.801 12.7669H12.1657V12.5582C12.7119 12.8543 13.2338 13.2087 13.7188 13.6166C12.3357 15.0253 10.4194 15.9083 8.29639 15.9391ZM8.29639 11.5071C8.65548 11.5125 9.01638 11.5447 9.37637 11.6013V12.7669H10.5426C9.97316 13.8083 9.2144 14.7539 8.29639 15.5388V11.5071ZM8.29639 8.296H9.37637V11.3703C9.01638 11.3151 8.65563 11.2839 8.29639 11.2786V8.296ZM8.29639 5.00103C8.61461 4.99683 8.93254 4.97489 9.24911 4.93764C9.26143 5.76243 9.93364 6.42767 10.7614 6.42767C11.0389 6.42767 11.2985 6.3527 11.5221 6.22245C11.567 6.42842 11.6047 6.6359 11.6356 6.84442H9.37637V8.06749H8.29639V5.00103ZM8.29639 0.86145C9.16001 1.5964 9.88256 2.47287 10.4395 3.43678C9.82516 3.57004 9.35008 4.07619 9.26323 4.70657C8.94215 4.74594 8.61927 4.76832 8.29639 4.77253V0.86145ZM15.2411 4.95747L14.2569 8.06749H12.1657V6.84442H11.8664C11.8295 6.58842 11.782 6.33392 11.7243 6.08168C12.0602 5.80419 12.2744 5.38444 12.2744 4.9148C12.2744 4.63611 12.1986 4.37515 12.0672 4.151C12.7365 3.84873 13.3766 3.46878 13.9722 3.01778C14.4865 3.59363 14.916 4.2467 15.2411 4.95747ZM18.9219 3.78653H15.612L15.4257 4.37455C15.1387 3.8298 14.7924 3.32125 14.3948 2.85778C14.8567 2.73278 15.3339 2.66833 15.8178 2.66833C18.8417 2.66833 21.3018 5.15202 21.3018 8.2048C21.3018 8.89799 21.1746 9.56158 20.9432 10.1735L18.9219 3.78653ZM16.6721 9.44259L17.0662 7.53701C17.0662 7.53701 17.1849 7.0229 17.219 6.77757H17.3146C17.3485 7.0229 17.4674 7.53701 17.4674 7.53701L17.8615 9.44259H16.6721ZM14.9851 12.7287H15.9104L16.1635 11.5822H18.3701L18.6232 12.7287H18.9759C18.0825 13.3663 16.9927 13.7413 15.8178 13.7413C15.3223 13.7413 14.8346 13.6741 14.3628 13.5433C14.5865 13.2853 14.7945 13.0132 14.9851 12.7287ZM12.8017 12.6656C12.5938 12.5347 12.3815 12.4127 12.1657 12.2993V8.296H14.1846L12.8017 12.6656ZM14.4692 12.7287C14.2859 12.9817 14.0877 13.2231 13.8758 13.4519C13.5645 13.1893 13.2386 12.9473 12.9003 12.7287H14.4692ZM8.29639 0.424565C10.4702 0.455964 12.4275 1.38081 13.8174 2.84876C13.2286 3.29256 12.5962 3.66514 11.9348 3.96005C11.6573 3.61962 11.2349 3.40208 10.7614 3.40208C10.7351 3.40208 10.7091 3.40268 10.6831 3.40403C10.0764 2.33075 9.27015 1.36083 8.29639 0.564284V0.424565ZM8.06801 0.564284C7.01072 1.42919 6.15085 2.49841 5.52942 3.68257H3.85837C3.40282 3.44204 2.96364 3.16381 2.54655 2.84936C3.93635 1.38096 5.89408 0.455964 8.06801 0.424565V0.564284ZM8.06801 4.77253C7.9723 4.77133 7.8766 4.76772 7.78089 4.76336V3.68257H5.7877C6.36075 2.62176 7.13152 1.65845 8.06801 0.86145V4.77253ZM8.06801 8.06749H7.48009V7.12146H5.21601V6.43368H7.78089V4.99187C7.8766 4.99608 7.9723 4.99968 8.06801 5.00088V8.06749ZM8.06801 11.2786C7.14489 11.2921 6.23078 11.4696 5.35724 11.7975C5.30751 11.6775 5.26078 11.5564 5.21601 11.4347V9.64331H7.48009V8.296H8.06801V11.2786ZM8.06801 15.5388C6.93364 14.5688 6.04177 13.3537 5.45069 12.0154C6.3011 11.6966 7.18786 11.5211 8.06801 11.5071V15.5388ZM8.06801 15.9391C5.97566 15.9089 4.08344 15.0507 2.70521 13.6773C3.08895 13.3368 3.49807 13.0323 3.92613 12.7669H5.21601V12.1076C5.22337 12.1046 5.23058 12.1013 5.23794 12.0985C5.86823 13.5293 6.83433 14.8227 8.06801 15.8368V15.9391ZM0.424601 8.296H1.99199V12.7669H3.49807C3.16873 12.9916 2.85125 13.2416 2.54625 13.5138C1.25472 12.1492 0.453899 10.3161 0.424601 8.296ZM2.3921 3.01763C2.71228 3.25996 3.04447 3.48261 3.38779 3.68257H1.99199V8.06749H0.424601C0.452697 6.12915 1.19132 4.36299 2.3921 3.01763Z" fill="black"></path></svg>