<svg viewBox="0 0 104 23" fill="none" xmlns="http://www.w3.org/2000/svg">
<path d="M99.6797 0.00244141C104.16 -0.157559 105.44 7.68275 99.6797 8.32275H11.5195V22.2427H0V0.00244141H99.6797ZM11.5195 5.12256H87.2002C88.3196 4.80239 88.1597 3.3627 87.2002 3.04248H11.5195V5.12256Z" fill="black"/>
<path d="M15.3599 22.2425H21.9199V10.0825H15.3599V22.2425Z" fill="black"/>
<path d="M39.2002 10.0825C44.1599 9.92277 44.4801 16.6427 41.1201 18.2427L44.1602 22.2427H36.1602L34.0801 18.562H32.4795V22.2427H25.9199V10.0825H39.2002ZM32.4805 13.2827V15.5229H35.2002C37.44 15.5228 37.4399 13.2828 35.04 13.2827H32.4805Z" fill="black"/>
<path d="M47.0398 10.0825V22.2425H61.4398V19.2025H53.7598V17.6025H60.6398V14.5625H53.7598V13.2825H60.7998V10.0825H47.0398ZM64.9598 10.0825V22.2425H77.9198V19.0425H71.6798V10.0825H64.9598ZM79.5198 10.0825V22.2425H92.4798V19.0425H86.3998V10.0825H79.5198ZM94.5598 22.2425H101.12V10.0825H94.5598V22.2425Z" fill="black"/>
</svg>
