<svg viewBox="0 0 69 48" fill="none" xmlns="http://www.w3.org/2000/svg">
<path d="M17.9053 0C22.2027 0 26.0484 2.04848 28.4609 5.22754L28.6709 4.99707C29.7457 3.92467 31.0151 3.06511 32.4121 2.46582C33.9022 1.82663 35.5066 1.49647 37.1279 1.49512C41.6515 1.49512 45.5726 4.00843 47.6836 7.75293C49.5574 6.91531 51.5872 6.48236 53.6396 6.4834C61.7819 6.48355 68.3916 13.1436 68.3916 21.3613C68.3916 29.579 61.7819 36.2381 53.6396 36.2383C52.6446 36.2383 51.6744 36.1386 50.7246 35.9502C49.7897 37.6229 48.4261 39.0167 46.7744 39.9883C45.1226 40.9599 43.2416 41.4741 41.3252 41.4785C39.6881 41.4817 38.072 41.1101 36.6006 40.3926C35.6575 42.612 34.0828 44.5054 32.0723 45.8369C30.0616 47.1684 27.7035 47.8797 25.292 47.8818C19.9894 47.8818 15.4909 44.5393 13.7568 39.8398C12.985 40.0026 12.1979 40.0846 11.4092 40.084C5.10148 40.0839 7.42517e-05 34.9068 0 28.5488C0 24.2766 2.29733 20.5573 5.70508 18.5469C4.98218 16.8816 4.60949 15.085 4.61133 13.2695C4.61133 5.93147 10.5673 0.00026124 17.9053 0ZM39.8926 16.7021C39.174 16.7022 38.6109 16.9027 38.2139 17.3047C37.8194 17.7017 37.5502 18.3076 37.417 19.1016L37.3672 19.3711H36.4678C36.4657 19.3711 36.3589 19.3695 36.334 19.4863L36.1885 20.3105C36.1784 20.3909 36.2111 20.4384 36.3164 20.4385H37.1934L36.3037 25.3994C36.2334 25.8015 36.1534 26.1286 36.0654 26.3799C36.0031 26.5799 35.9099 26.7693 35.7891 26.9404C35.6886 27.0711 35.5926 27.1664 35.4268 27.2217C35.1733 27.3033 34.902 27.3142 34.6426 27.2539C34.5691 27.2388 34.4977 27.2152 34.4297 27.1836C34.4268 27.1826 34.3259 27.1479 34.2861 27.249L33.9922 28.0537C33.9646 28.1315 34.0025 28.1943 34.0527 28.2119C34.3528 28.3283 34.6735 28.3834 34.9951 28.373C35.3619 28.373 35.6934 28.3222 35.9697 28.2217C36.2461 28.1212 36.4876 27.9456 36.7012 27.7119C36.9323 27.4556 37.0786 27.1886 37.2168 26.8242C37.3733 26.3921 37.4897 25.9465 37.5654 25.4932L38.458 20.4385H39.7646C39.7646 20.4385 39.8723 20.4438 39.8975 20.3232L40.0439 19.499C40.0539 19.4212 40.0205 19.373 39.915 19.373H38.6484C38.6538 19.3403 38.7122 18.8948 38.8574 18.4766C38.9188 18.318 39.0129 18.1734 39.1338 18.0537C39.2268 17.9591 39.3415 17.8883 39.4678 17.8477C39.6052 17.8055 39.7488 17.7849 39.8926 17.7871C40.0717 17.7852 40.2505 17.813 40.4209 17.8682C40.5512 17.9082 40.5661 17.8678 40.5938 17.8076L40.8955 16.9756C40.9279 16.8853 40.8499 16.8504 40.8223 16.8379C40.6937 16.7991 40.563 16.7672 40.4307 16.7441C40.253 16.7142 40.0727 16.7006 39.8926 16.7021ZM12.3096 19.2305C11.0254 19.2305 10.128 20.0094 10.1279 21.1201V21.1455C10.1282 22.3137 11.1183 22.6961 12.043 22.96L12.1914 23.0068C12.8648 23.2129 13.4472 23.3948 13.4473 23.8672V23.8896C13.4471 24.3243 13.068 24.6484 12.46 24.6484C12.2236 24.6484 11.4699 24.643 10.6533 24.1279C10.5528 24.0701 10.4972 24.0276 10.4219 23.9824C10.3816 23.9573 10.281 23.9147 10.2383 24.0449L9.96191 24.8145L9.94629 24.8857C9.94515 24.9408 9.98079 24.9576 9.99219 24.9727C10.1178 25.0656 10.2512 25.1336 10.3818 25.209C11.0804 25.5783 11.7392 25.6865 12.4277 25.6865C13.8298 25.6864 14.7021 24.9394 14.7021 23.7383V23.7139C14.7021 22.6032 13.7166 22.1982 12.7969 21.9092L12.6758 21.8711C11.9801 21.645 11.3802 21.4492 11.3799 20.9922V20.9668C11.38 20.5748 11.7317 20.2881 12.2744 20.2881C12.8773 20.2882 13.5958 20.4891 14.0557 20.7402C14.0557 20.7402 14.1918 20.831 14.2422 20.6982L14.5283 19.9287C14.5533 19.8534 14.5077 19.8006 14.46 19.7705C13.8499 19.415 13.1562 19.2286 12.4502 19.2305H12.3096ZM32.8389 19.2305C31.5547 19.2305 30.6573 20.007 30.6572 21.1152V21.1396C30.6572 22.3107 31.6475 22.6932 32.5723 22.957L32.7207 23.0049C33.3966 23.2109 33.9774 23.3919 33.9775 23.8643V23.8896C33.9774 24.3218 33.5973 24.6455 32.9893 24.6455C32.7503 24.6455 31.9962 24.641 31.1797 24.126C31.0818 24.0682 31.024 24.0272 30.9512 23.9795C30.9253 23.9642 30.8057 23.918 30.7656 24.043L30.4893 24.8115L30.4785 24.8838C30.4775 24.9381 30.5118 24.9548 30.5215 24.9697C30.6496 25.0627 30.7805 25.1307 30.9111 25.2061C31.6098 25.5755 32.2685 25.6836 32.957 25.6836C34.3591 25.6835 35.2313 24.9374 35.2314 23.7363V23.7109C35.2314 22.6003 34.251 22.1952 33.3262 21.9062L33.2061 21.8691C32.51 21.643 31.9092 21.4466 31.9092 20.9893V20.9639C31.9094 20.5745 32.2611 20.2852 32.8037 20.2852C33.4068 20.2852 34.123 20.487 34.5879 20.7383C34.5941 20.7423 34.7243 20.8251 34.7734 20.6953C34.7988 20.6245 35.035 19.9961 35.0576 19.9258C35.0823 19.8533 35.0378 19.7982 34.9902 19.7705C34.3801 19.4148 33.6857 19.2286 32.9795 19.2305H32.8389ZM42.9941 19.25C42.5167 19.25 42.0967 19.3361 41.7373 19.502C41.3908 19.6606 41.0836 19.8942 40.8379 20.1855C40.5929 20.4849 40.4111 20.8312 40.3047 21.2031C40.1877 21.6123 40.1301 22.0364 40.1338 22.4619C40.1338 22.9141 40.1917 23.3338 40.3047 23.7207C40.4105 24.0929 40.5924 24.4402 40.8379 24.7393C41.0829 25.0299 41.3905 25.2614 41.7373 25.417C42.0967 25.5803 42.5192 25.6641 42.9941 25.6641C43.4716 25.6641 43.8916 25.5803 44.251 25.417C44.5969 25.2613 44.9034 25.0297 45.1475 24.7393C45.3862 24.4528 45.5651 24.1102 45.6807 23.7207C45.7962 23.3339 45.8535 22.9119 45.8535 22.4648C45.8535 22.0151 45.7962 21.59 45.6807 21.2031L45.5898 20.9307C45.4828 20.6617 45.3345 20.4104 45.1504 20.1855C44.9055 19.8935 44.598 19.6597 44.251 19.502C43.8942 19.3361 43.4716 19.25 42.9941 19.25ZM27.1641 19.248C26.669 19.2481 26.2189 19.3307 25.8545 19.499C25.5013 19.6616 25.1892 19.9014 24.9404 20.2002C24.6928 20.5033 24.5095 20.854 24.4023 21.2305C24.2835 21.641 24.2244 22.0667 24.2266 22.4941C24.2266 22.9513 24.2892 23.3739 24.4072 23.7607C24.521 24.1343 24.7171 24.4784 24.9805 24.7666C25.2571 25.0617 25.5984 25.2886 25.9775 25.4297C26.3796 25.583 26.8601 25.6636 27.418 25.6611C28.5639 25.6586 29.1668 25.4019 29.4131 25.2637C29.4583 25.2385 29.4985 25.1983 29.4482 25.0752L29.1895 24.3496C29.1498 24.2433 29.0422 24.2783 29.0391 24.2793C28.7551 24.3874 28.3526 24.5758 27.4102 24.5732C26.7972 24.5732 26.3402 24.3918 26.0537 24.1055C25.7622 23.814 25.6164 23.3892 25.5938 22.7861L29.5645 22.791C29.5711 22.7909 29.6698 22.7877 29.6797 22.6885C29.6849 22.6445 29.815 21.8733 29.5615 20.9795V20.9766C29.461 20.6023 29.2145 20.2232 29.0537 20.0498C28.8445 19.809 28.5878 19.6136 28.2998 19.4766C27.9405 19.3245 27.5542 19.2468 27.1641 19.248ZM58.9043 19.248C58.4093 19.2481 57.9591 19.3307 57.5947 19.499C57.2427 19.6612 56.931 19.8997 56.6826 20.1973C56.435 20.5002 56.2525 20.8512 56.1455 21.2275C56.0299 21.617 55.9688 22.0449 55.9688 22.4922C55.9688 22.9495 56.0323 23.3718 56.1504 23.7588C56.265 24.133 56.4627 24.4764 56.7285 24.7637C57.0046 25.0586 57.3452 25.2863 57.7236 25.4277C58.1256 25.5809 58.608 25.6607 59.1631 25.6582C60.3084 25.6557 60.9117 25.4 61.1582 25.2617C61.2034 25.2366 61.244 25.1962 61.1914 25.0732L60.9326 24.3467C60.8951 24.2395 60.7855 24.2759 60.7842 24.2764C60.5002 24.3844 60.0977 24.5728 59.1553 24.5703C58.5398 24.5702 58.0852 24.389 57.7988 24.1025C57.5075 23.811 57.3615 23.3862 57.3389 22.7832L61.3096 22.7891C61.3136 22.789 61.4149 22.7866 61.4248 22.6855C61.4301 22.6412 61.5602 21.8702 61.3066 20.9766H61.3018C61.2012 20.6023 60.9547 20.2232 60.7939 20.0498C60.5848 19.809 60.3281 19.6136 60.04 19.4766C59.6808 19.3245 59.2944 19.2468 58.9043 19.248ZM53.8076 19.2354C53.3152 19.2354 52.8779 19.318 52.501 19.4863C52.1406 19.6429 51.8185 19.8761 51.5576 20.1699C51.2968 20.4637 51.103 20.8112 50.9902 21.1875C50.8603 21.5952 50.7964 22.0213 50.7998 22.4492C50.7998 23.4192 51.0615 24.2058 51.5791 24.7812C52.0968 25.3592 52.8754 25.6513 53.8906 25.6514C54.4913 25.6514 55.1075 25.5279 55.5498 25.3545C55.5554 25.3516 55.6314 25.3106 55.5977 25.2139L55.3086 24.4199L55.2881 24.3838C55.2426 24.3189 55.1604 24.3478 55.1553 24.3496C54.987 24.4149 54.8032 24.4747 54.6123 24.5049C54.4164 24.535 54.2002 24.5508 53.9717 24.5508C53.4063 24.5508 52.9535 24.382 52.6318 24.0479C52.3052 23.7137 52.1265 23.1758 52.1289 22.4473C52.1289 21.784 52.2902 21.2862 52.5791 20.9043C52.863 20.5274 53.3001 20.3311 53.8779 20.3311C54.2975 20.3247 54.7159 20.3839 55.1172 20.5068C55.1188 20.5076 55.2081 20.5483 55.2529 20.4287L55.542 19.6299C55.572 19.5396 55.497 19.5038 55.4668 19.4912C54.9346 19.3039 54.3716 19.2174 53.8076 19.2354ZM18.0918 19.2373C17.7355 19.2409 17.3802 19.2744 17.0293 19.3359C17.0274 19.3363 16.1641 19.5046 15.8076 19.7832C15.8076 19.7832 15.7298 19.8334 15.7725 19.9414L16.0537 20.6953C16.0856 20.791 16.1774 20.7593 16.1816 20.7578C16.1823 20.7576 16.2124 20.7479 16.2471 20.7256C17.0033 20.3138 17.9605 20.3231 17.9736 20.3232C18.4008 20.3232 18.7329 20.4117 18.9541 20.5801C19.1699 20.7459 19.2802 20.9972 19.2803 21.5244V21.6934C18.9411 21.6431 18.627 21.6172 18.627 21.6172L18.625 21.6055C18.4643 21.5954 18.2554 21.5869 18.0068 21.5869C17.6676 21.5869 17.3378 21.63 17.0312 21.7129C16.7342 21.7908 16.4536 21.9213 16.2021 22.0977C15.9637 22.2687 15.7674 22.4922 15.6289 22.751C15.4827 23.0333 15.409 23.3481 15.415 23.666C15.4151 24.0176 15.4781 24.3216 15.5986 24.5703C15.7168 24.817 15.8948 25.0308 16.1162 25.1914C16.3575 25.3623 16.6317 25.4817 16.9209 25.543C17.235 25.6108 17.5867 25.6484 17.9736 25.6484C18.3808 25.6484 18.7857 25.6132 19.1777 25.5479C19.5114 25.4905 19.8439 25.426 20.1748 25.3545C20.3013 25.3253 20.4422 25.2866 20.4512 25.2842C20.5517 25.259 20.5449 25.1533 20.5449 25.1533L20.542 21.5342C20.5419 20.7403 20.3282 20.152 19.9111 19.7852C19.494 19.421 18.8807 19.2373 18.0918 19.2373ZM21.9473 16.8301C21.882 16.8301 21.834 16.8834 21.834 16.9512V25.4102C21.8342 25.4778 21.8821 25.5303 21.9473 25.5303H23C23.0626 25.5302 23.1131 25.4778 23.1133 25.4102V16.9512C23.1132 16.8834 23.0652 16.8302 23 16.8301H21.9473ZM49.8174 19.3076C49.468 19.2698 49.1142 19.3269 48.7939 19.4717C48.5349 19.5809 48.3059 19.7508 48.126 19.9668V19.4844C48.1259 19.4191 48.078 19.3633 48.0127 19.3633H46.9971C46.9295 19.3635 46.8819 19.4192 46.8818 19.4844V25.3896C46.8818 25.4053 46.8847 25.4211 46.8906 25.4355C46.8966 25.45 46.9059 25.4635 46.917 25.4746C46.9281 25.4857 46.9415 25.4949 46.9561 25.501C46.9705 25.507 46.9863 25.5107 47.002 25.5107H48.043C48.0587 25.5107 48.0743 25.507 48.0889 25.501C48.1035 25.4949 48.1167 25.4858 48.1279 25.4746C48.1391 25.4634 48.1483 25.4501 48.1543 25.4355C48.1603 25.421 48.1631 25.4054 48.1631 25.3896V22.4238C48.1631 22.027 48.206 21.6325 48.2939 21.3838C48.3794 21.1376 48.495 20.9415 48.6406 20.8008C48.778 20.6649 48.9464 20.5641 49.1309 20.5068C49.304 20.457 49.4838 20.4318 49.6641 20.4316C49.8707 20.4317 50.0947 20.4835 50.0986 20.4844C50.1738 20.4944 50.2165 20.4466 50.2441 20.3789C50.312 20.198 50.5051 19.6554 50.543 19.5469L50.5488 19.5205C50.5487 19.5063 50.5456 19.4916 50.54 19.4785C50.5344 19.4656 50.5257 19.4542 50.5156 19.4443C50.5055 19.4345 50.4936 19.4261 50.4805 19.4209C50.4122 19.3957 50.0784 19.3227 49.8174 19.3076ZM18.2021 22.5928C18.5623 22.5988 18.9222 22.6284 19.2783 22.6826V24.4854C19.2775 24.4855 18.7749 24.5928 18.21 24.6279C17.4157 24.6774 17.0573 24.4059 17.0488 24.3975L17.0469 24.3945C16.955 24.3337 16.8762 24.2543 16.8174 24.1611C16.7291 24.0044 16.6877 23.8252 16.6973 23.6455C16.6973 23.2988 16.8131 23.0472 17.0518 22.8789C17.0639 22.8686 17.4078 22.583 18.2021 22.5928ZM42.9961 20.3262C43.5188 20.3262 43.8914 20.507 44.1377 20.8789C44.3889 21.2508 44.5146 21.7836 44.5146 22.4619L44.5059 22.707C44.4784 23.2692 44.3553 23.7207 44.1377 24.0527C43.8914 24.4297 43.5163 24.6104 42.9961 24.6104C42.4761 24.6102 42.104 24.4294 41.8604 24.0576C41.6167 23.6807 41.4912 23.1402 41.4912 22.4619C41.4912 21.7836 41.6167 21.2508 41.8604 20.8789C42.104 20.5046 42.4737 20.3263 42.9961 20.3262ZM27.0684 20.2959C27.2886 20.2837 27.5083 20.331 27.7041 20.4326C27.8999 20.5343 28.0649 20.6868 28.1816 20.874C28.3449 21.1177 28.4157 21.4415 28.4434 21.8057H25.6162C25.654 21.4745 25.7635 21.1554 25.9375 20.8711C26.0584 20.6839 26.2272 20.5317 26.4258 20.4307C26.6243 20.3297 26.846 20.2834 27.0684 20.2959ZM58.8086 20.2959C59.0288 20.2837 59.2485 20.331 59.4443 20.4326C59.6402 20.5343 59.8051 20.6868 59.9219 20.874C60.0851 21.1177 60.1559 21.4415 60.1836 21.8057H57.3564C57.4117 21.429 57.5145 21.1147 57.6777 20.8711C57.7986 20.6839 57.9674 20.5317 58.166 20.4307C58.3645 20.3297 58.5863 20.2834 58.8086 20.2959Z" fill="black"/>
</svg>
